<svg viewBox="0 0 330 200" xmlns="http://www.w3.org/2000/svg"><g><g><g><g><g><line x1="62.200002670288086" y1="176.2199993133545" x2="57.200002670288086" y2="176.2199993133545" style="visibility: inherit;" fill="rgb(0, 0, 0)" stroke="rgb(204, 204, 204)" stroke-width="1px"></line><line x1="62.200002670288086" y1="156.63999938964844" x2="57.200002670288086" y2="156.63999938964844" style="visibility: inherit;" fill="rgb(0, 0, 0)" stroke="rgb(204, 204, 204)" stroke-width="1px"></line><line x1="62.200002670288086" y1="137.05999946594238" x2="57.200002670288086" y2="137.05999946594238" style="visibility: inherit;" fill="rgb(0, 0, 0)" stroke="rgb(204, 204, 204)" stroke-width="1px"></line><line x1="62.200002670288086" y1="117.47999954223633" x2="57.200002670288086" y2="117.47999954223633" style="visibility: inherit;" fill="rgb(0, 0, 0)" stroke="rgb(204, 204, 204)" stroke-width="1px"></line><line x1="62.200002670288086" y1="97.89999961853027" x2="57.200002670288086" y2="97.89999961853027" style="visibility: inherit;" fill="rgb(0, 0, 0)" stroke="rgb(204, 204, 204)" stroke-width="1px"></line><line x1="62.200002670288086" y1="78.31999969482422" x2="57.200002670288086" y2="78.31999969482422" style="visibility: inherit;" fill="rgb(0, 0, 0)" stroke="rgb(204, 204, 204)" stroke-width="1px"></line><line x1="62.200002670288086" y1="58.739999771118164" x2="57.200002670288086" y2="58.739999771118164" style="visibility: inherit;" fill="rgb(0, 0, 0)" stroke="rgb(204, 204, 204)" stroke-width="1px"></line><line x1="62.200002670288086" y1="39.15999984741211" x2="57.200002670288086" y2="39.15999984741211" style="visibility: inherit;" fill="rgb(0, 0, 0)" stroke="rgb(204, 204, 204)" stroke-width="1px"></line><line x1="62.200002670288086" y1="19.579999923706055" x2="57.200002670288086" y2="19.579999923706055" style="visibility: inherit;" fill="rgb(0, 0, 0)" stroke="rgb(204, 204, 204)" stroke-width="1px"></line><line x1="62.200002670288086" y1="0" x2="57.200002670288086" y2="0" style="visibility: inherit;" fill="rgb(0, 0, 0)" stroke="rgb(204, 204, 204)" stroke-width="1px"></line></g><g transform="translate(52.200002670288086, 0)"><text style="text-anchor: end; visibility: hidden; font-family: &quot;Helvetica Neue&quot;, sans-serif; font-size: 12px; font-weight: 200;" x="0" y="176.2199993133545" dx="0em" dy="0.3em" fill="rgb(50, 49, 63)" stroke="none" stroke-width="1px">-1e+4</text><text style="text-anchor: end; visibility: inherit; font-family: &quot;Helvetica Neue&quot;, sans-serif; font-size: 12px; font-weight: 200;" x="0" y="156.63999938964844" dx="0em" dy="0.3em" fill="rgb(50, 49, 63)" stroke="none" stroke-width="1px">0</text><text style="text-anchor: end; visibility: hidden; font-family: &quot;Helvetica Neue&quot;, sans-serif; font-size: 12px; font-weight: 200;" x="0" y="137.05999946594238" dx="0em" dy="0.3em" fill="rgb(50, 49, 63)" stroke="none" stroke-width="1px">1e+4</text><text style="text-anchor: end; visibility: inherit; font-family: &quot;Helvetica Neue&quot;, sans-serif; font-size: 12px; font-weight: 200;" x="0" y="117.47999954223633" dx="0em" dy="0.3em" fill="rgb(50, 49, 63)" stroke="none" stroke-width="1px">2e+4</text><text style="text-anchor: end; visibility: hidden; font-family: &quot;Helvetica Neue&quot;, sans-serif; font-size: 12px; font-weight: 200;" x="0" y="97.89999961853027" dx="0em" dy="0.3em" fill="rgb(50, 49, 63)" stroke="none" stroke-width="1px">3e+4</text><text style="text-anchor: end; visibility: inherit; font-family: &quot;Helvetica Neue&quot;, sans-serif; font-size: 12px; font-weight: 200;" x="0" y="78.31999969482422" dx="0em" dy="0.3em" fill="rgb(50, 49, 63)" stroke="none" stroke-width="1px">4e+4</text><text style="text-anchor: end; visibility: hidden; font-family: &quot;Helvetica Neue&quot;, sans-serif; font-size: 12px; font-weight: 200;" x="0" y="58.739999771118164" dx="0em" dy="0.3em" fill="rgb(50, 49, 63)" stroke="none" stroke-width="1px">5e+4</text><text style="text-anchor: end; visibility: inherit; font-family: &quot;Helvetica Neue&quot;, sans-serif; font-size: 12px; font-weight: 200;" x="0" y="39.15999984741211" dx="0em" dy="0.3em" fill="rgb(50, 49, 63)" stroke="none" stroke-width="1px">6e+4</text><text style="text-anchor: end; visibility: hidden; font-family: &quot;Helvetica Neue&quot;, sans-serif; font-size: 12px; font-weight: 200;" x="0" y="19.579999923706055" dx="0em" dy="0.3em" fill="rgb(50, 49, 63)" stroke="none" stroke-width="1px">7e+4</text><text style="text-anchor: end; visibility: hidden; font-family: &quot;Helvetica Neue&quot;, sans-serif; font-size: 12px; font-weight: 200;" x="0" y="0" dx="0em" dy="0.3em" fill="rgb(50, 49, 63)" stroke="none" stroke-width="1px">8e+4</text></g><line x1="62.200002670288086" y1="0" x2="62.200002670288086" y2="176.2199993133545" fill="rgb(0, 0, 0)" stroke="rgb(204, 204, 204)" stroke-width="1px"></line></g></g><g transform="translate(62, 0)" clip-path="url(#clip_0)"><clipPath id="clip_0"><rect width="267" height="176"></rect></clipPath><g><g><g><line x1="0" y1="0" x2="0" y2="176.2199993133545" fill="rgb(0, 0, 0)" stroke="rgb(60, 60, 60)" stroke-width="1px" opacity="0.25"></line><line x1="22.31666644414266" y1="0" x2="22.31666644414266" y2="176.2199993133545" fill="rgb(0, 0, 0)" stroke="rgb(60, 60, 60)" stroke-width="1px" opacity="0.25"></line><line x1="44.63333288828532" y1="0" x2="44.63333288828532" y2="176.2199993133545" fill="rgb(0, 0, 0)" stroke="rgb(60, 60, 60)" stroke-width="1px" opacity="0.25"></line><line x1="66.94999933242798" y1="0" x2="66.94999933242798" y2="176.2199993133545" fill="rgb(0, 0, 0)" stroke="rgb(60, 60, 60)" stroke-width="1px" opacity="0.25"></line><line x1="89.26666577657063" y1="0" x2="89.26666577657063" y2="176.2199993133545" fill="rgb(0, 0, 0)" stroke="rgb(60, 60, 60)" stroke-width="1px" opacity="0.25"></line><line x1="111.5833322207133" y1="0" x2="111.5833322207133" y2="176.2199993133545" fill="rgb(0, 0, 0)" stroke="rgb(60, 60, 60)" stroke-width="1px" opacity="0.25"></line><line x1="133.89999866485596" y1="0" x2="133.89999866485596" y2="176.2199993133545" fill="rgb(0, 0, 0)" stroke="rgb(60, 60, 60)" stroke-width="1px" opacity="0.25"></line><line x1="156.21666510899863" y1="0" x2="156.21666510899863" y2="176.2199993133545" fill="rgb(0, 0, 0)" stroke="rgb(60, 60, 60)" stroke-width="1px" opacity="0.25"></line><line x1="178.53333155314127" y1="0" x2="178.53333155314127" y2="176.2199993133545" fill="rgb(0, 0, 0)" stroke="rgb(60, 60, 60)" stroke-width="1px" opacity="0.25"></line><line x1="200.84999799728394" y1="0" x2="200.84999799728394" y2="176.2199993133545" fill="rgb(0, 0, 0)" stroke="rgb(60, 60, 60)" stroke-width="1px" opacity="0.25"></line><line x1="223.1666644414266" y1="0" x2="223.1666644414266" y2="176.2199993133545" fill="rgb(0, 0, 0)" stroke="rgb(60, 60, 60)" stroke-width="1px" opacity="0.25"></line><line x1="245.48333088556925" y1="0" x2="245.48333088556925" y2="176.2199993133545" fill="rgb(0, 0, 0)" stroke="rgb(60, 60, 60)" stroke-width="1px" opacity="0.25"></line><line x1="267.7999973297119" y1="0" x2="267.7999973297119" y2="176.2199993133545" fill="rgb(0, 0, 0)" stroke="rgb(60, 60, 60)" stroke-width="1px" opacity="0.25"></line></g><g><line x1="0" y1="176.2199993133545" x2="267.7999973297119" y2="176.2199993133545" fill="rgb(0, 0, 0)" stroke="rgb(60, 60, 60)" stroke-width="1px" opacity="0.25"></line><line x1="0" y1="156.63999938964844" x2="267.7999973297119" y2="156.63999938964844" fill="rgb(0, 0, 0)" stroke="rgb(60, 60, 60)" stroke-width="1px" opacity="0.25"></line><line x1="0" y1="137.05999946594238" x2="267.7999973297119" y2="137.05999946594238" fill="rgb(0, 0, 0)" stroke="rgb(60, 60, 60)" stroke-width="1px" opacity="0.25"></line><line x1="0" y1="117.47999954223633" x2="267.7999973297119" y2="117.47999954223633" fill="rgb(0, 0, 0)" stroke="rgb(60, 60, 60)" stroke-width="1px" opacity="0.25"></line><line x1="0" y1="97.89999961853027" x2="267.7999973297119" y2="97.89999961853027" fill="rgb(0, 0, 0)" stroke="rgb(60, 60, 60)" stroke-width="1px" opacity="0.25"></line><line x1="0" y1="78.31999969482422" x2="267.7999973297119" y2="78.31999969482422" fill="rgb(0, 0, 0)" stroke="rgb(60, 60, 60)" stroke-width="1px" opacity="0.25"></line><line x1="0" y1="58.739999771118164" x2="267.7999973297119" y2="58.739999771118164" fill="rgb(0, 0, 0)" stroke="rgb(60, 60, 60)" stroke-width="1px" opacity="0.25"></line><line x1="0" y1="39.15999984741211" x2="267.7999973297119" y2="39.15999984741211" fill="rgb(0, 0, 0)" stroke="rgb(60, 60, 60)" stroke-width="1px" opacity="0.25"></line><line x1="0" y1="19.579999923706055" x2="267.7999973297119" y2="19.579999923706055" fill="rgb(0, 0, 0)" stroke="rgb(60, 60, 60)" stroke-width="1px" opacity="0.25"></line><line x1="0" y1="0" x2="267.7999973297119" y2="0" fill="rgb(0, 0, 0)" stroke="rgb(60, 60, 60)" stroke-width="1px" opacity="0.25"></line></g></g></g><g><g><line x1="0" y1="156.63999938964844" x2="267.7999973297119" y2="156.63999938964844" fill="rgb(0, 0, 0)" stroke="rgb(153, 153, 153)" stroke-width="1.5px"></line></g></g><g><g><line x1="22.31666644414266" y1="0" x2="22.31666644414266" y2="176.2199993133545" fill="rgb(0, 0, 0)" stroke="rgb(153, 153, 153)" stroke-width="1.5px"></line></g></g><g><g><g><g><g><path style="fill: none;" stroke="rgb(255, 112, 67)" stroke-width="2px" d="M22.874583105246227,40.903453520306215L22.986166437466938,71.36021032545882L23.432499766349792,92.06364962118248L23.544083098570507,103.72488208942839L23.767249763011932,112.71312271986353L23.878833095232647,121.337000086467L23.990416427453358,128.4889302975128L24.213583091894787,134.81107146978886L24.325166424115498,139.64851479730567L24.436749756336212,143.90296120693571L24.548333088556923,146.81437803384773L24.99466641743978,148.4669345218842L25.998916407426197,151.0541806060311L26.11049973964691,152.52231841639087L26.333666404088337,153.72990847131328L26.668416400750477,154.17898626886256L26.77999973297119,154.54115563161423L27.003166397412617,154.73964119800164L27.226333061854046,154.93881589436558L27.337916394074757,155.14972204550818L27.561083058516186,155.26569028512824L27.78424972295761,155.30131291177545L27.895833055178326,155.3983596607866L28.230583051840465,155.54601773950873L28.342166384061176,155.37555339972076L28.45374971628189,155.4933207644752L28.565333048502605,155.5573656515045L28.67691638072332,155.6127493053646L29.01166637738546,155.43647442729534L29.12324970960617,155.40720119964945L29.3464163740476,155.67898515230817L29.56958303848902,155.67014925437218L29.68116637070974,155.80056066485906L29.79274970293045,155.75194746027526L29.90433303515116,155.6398601733248L30.239083031813305,155.63704421564307L30.350666364034016,155.84596070196014L30.46224969625473,155.80782693838748L30.573833028475445,155.63262001691677L30.79699969291687,155.69501722418252L31.13174968957901,155.72739206776697L31.689666350682575,155.7332405432589L31.80124968290329,155.75503529774898L31.912833015124004,155.87839518545317L32.02441634734472,155.845625976426L32.13599967956543,155.9540518055745L32.24758301178615,155.64564366192235L32.80549967288971,155.80097922009853L33.69816633065541,155.723726640991L34.03291632731755,155.77675458776966L34.14449965953827,155.86192534984278L34.92558298508326,155.9155325269497L35.2603329817454,155.88535723975536L35.48349964618683,156.02674041664665L35.59508297840754,155.958036927481L35.70666631062826,156.01963402176466L36.15299963951111,156.08754948435433L36.26458297173182,156.07044912391333L36.37616630395254,156.08717684948692L36.71091630061468,156.10966392206285L36.82249963283539,155.70366778909352L37.15724962949753,155.8033734757477L37.60358295838038,155.91490976607872L37.8267496228218,156.01616088262406L38.04991628726324,156.02598165909734L38.16149961948395,156.03524457626216L38.27308295170466,156.0640796050592L38.38466628392538,156.19230366423918L38.83099961280823,156.2231548418579L39.05416627724966,156.19599066929803L39.388916273911796,156.14342614344247L39.50049960613251,156.17136608749962L39.61208293835322,156.1780522934629L39.83524960279465,156.2481860376939L39.94683293501536,156.1295238900468L40.058416267236076,155.932348279635L40.393166263898216,156.16153250866475L40.616332928339645,156.12572316694838L40.72791626056035,155.9514963057266L40.951082925001785,156.05082891929047L41.06266625722249,156.21279466065053L41.39741625388463,156.22729659973402L41.955332914988205,156.30779999152983L42.06691624720891,156.3259483367468L42.17849957942963,156.18395810509278L42.40166624387105,156.18671487825767L42.513249576091766,156.21792748797648L42.73641624053319,156.27716262468266L42.959582904974624,156.3368527039145L43.07116623719533,156.27020073027083L43.182749569416046,156.17350487917912L43.29433290163676,156.26430204837638L43.517499566078186,156.3219824220197L43.6290828982989,156.24804273693016L44.410166223843895,156.29812893046446L44.856499552726746,156.2974781932867L45.302832881609596,156.28686298515078L45.414416213830314,156.16811558363187L45.525999546051025,156.2332181200823L45.972332874933876,156.3304630685142L46.307082871596016,156.25021663992612L46.641832868258156,156.14023487053862L46.753416200478874,156.13642605194997L47.088166197141014,156.28692044441166L47.199749529361725,156.24079556361727L47.422916193803154,156.2325922184632L47.534499526023865,156.30427322050832L47.646082858244576,156.3759755204883L47.869249522686005,156.3180283716461L47.980832854906716,156.35645563490593L48.203999519348145,156.3788983013603L48.315582851568855,156.32108417469792L48.42716618378957,156.30024625411528L48.76191618045171,156.08832838490355L49.096666177113846,156.2391516621469L49.65458283821742,156.33744455494568L49.877749502658844,156.42981567808943L50.100916167100266,156.34683985503875L50.212499499320984,156.41955601108805L50.770416160424546,156.26006706206124L51.105166157086686,156.26318157374206L51.216749489307404,156.33590073873256L51.32833282152812,156.3141653269891L51.439916153748825,156.31322989531336L51.663082818190254,156.1125473177029L52.10941614707311,156.1796378652913L52.332582811514534,156.18474762366878L52.55574947595596,156.22641432996087L52.77891614039739,156.32775562497798L53.336832801500954,156.35964398432137L53.55999946594238,156.4045827920998L54.006332794825234,156.46261987365506L54.564249455928795,156.3820344074251L54.78741612037023,156.47284095313063L54.89899945259094,156.43892611354303L55.23374944925308,156.40409074655346L55.45691611369451,156.42231758800537L55.56849944591522,156.24459757922563L55.68008277813593,156.32559783072176L55.90324944257736,156.40153190470937L56.01483277479807,156.4346793025713L56.12641610701879,156.41302454210341L56.57274943590164,156.37767646231362L56.68433276812235,156.3943330863686L56.90749943256378,156.4038708494325L57.24224942922592,156.46925091321518L57.68858275810878,156.4323725769034L57.80016609032948,156.3798948065334L57.9117494225502,156.2909269100383L58.02333275477092,156.40895190879792L58.24649941921234,156.40203228420953L58.58124941587448,156.43529489685955L58.6928327480952,156.39415432592418L58.8044160803159,156.39443227238922L59.13916607697804,156.3802963187908L59.25074940919876,156.34261849773426L59.47391607364018,156.3743413214536L60.14341606696447,156.3331320860005L60.36658273140589,156.1900310804682L60.70133272806803,156.11976478070136L60.81291606028875,156.24203157565222L61.03608272473017,156.30945487570494L61.14766605695089,156.25360559889748L61.70558271805445,156.27811986397117L61.81716605027517,156.34681364017564L62.04033271471659,156.29973961822967L62.26349937915802,156.42179258829603L62.37508271137873,156.3438710313435L62.48666604359945,156.41057653634172L62.82141604026159,156.38574321681503L62.93299937248229,156.42236177337242L63.26774936914444,156.45088687727642L63.37933270136515,156.44999372944727L63.60249936580658,156.40118574346477L63.71408269802729,156.42780329769013L63.93724936246872,156.42332667077744L64.38358269135158,156.43900722214613L64.4951660235723,156.43311415469324L64.606749355793,156.40144585542L64.82991602023444,156.45757753563106L64.94149935245514,156.5092294934374L65.27624934911728,156.4128685943102L65.387832681338,156.33283722795508L65.49941601355872,156.36428401231237L65.61099934577942,156.42141456851374L65.83416601022084,156.2742925265925L65.94574934244156,156.30302399839596L66.05733267466228,156.3390250542992L66.16891600688298,156.35334128611785L67.17316599686941,156.41639651046432L67.2847493290901,156.4411219979248L67.50791599353154,156.49296428497735L67.8426659901937,156.51781416153622L68.62374931573868,156.46722251643163L68.73533264795938,156.31952570960513L69.18166597684225,156.35237681102228L69.29324930906296,156.34352762077532L69.40483264128366,156.41720256133954L69.6279993057251,156.40758756555758L69.85116597016652,156.3689363579138L70.29749929904938,156.40157633479456L71.3017492890358,156.46821664828178L71.41333262125652,156.33964967733542L71.52491595347722,156.43969336152412L71.63649928569794,156.37384255914586L71.85966595013936,156.36957310186136L71.97124928236008,156.4265693380191L72.30599927902222,156.44968317924423L72.64074927568436,156.36422112497306L73.42183260122935,156.38128983369066L73.53341593345007,156.42396906218838L73.64499926567078,156.46840678344827L73.75658259789148,156.44442167838884L73.97974926233292,156.42413048520652L74.09133259455363,156.41137730243534L74.20291592677435,156.3858202691974L74.42608259121576,156.40648322899716L74.53766592343648,156.46830312540285L74.6492492556572,156.45759396928884L74.87241592009863,156.48122875296303L75.09558258454004,156.45595093988624L75.20716591676076,156.4937710523311L75.6534992456436,156.5243861780008L76.4345825711886,156.48915555035526L76.76933256785075,156.3377569937335L76.88091590007147,156.34265170238058L77.10408256451288,156.33624470637722L77.32724922895432,156.4040910938352L77.66199922561646,156.46023200319078L78.8894158800443,156.4823984620753L79.22416587670644,156.49920035077437L79.33574920892715,156.49700557155688L79.44733254114787,156.54353701812218L79.6704992055893,156.46709617151438L79.89366587003072,156.47341654011026L80.00524920225143,156.514543252376L80.22841586669286,156.5004623943701L80.78633252779643,156.43645730885407L80.89791586001714,156.51224939025263L81.56741585334142,156.50278198134194L81.79058251778285,156.467807572334L81.90216585000357,156.44761197081047L82.01374918222427,156.46002393163303L82.12533251444498,156.4637714692921L82.2369158466657,156.42001307496477L82.34849917888641,156.44567922309648L82.46008251110713,156.39922370959812L82.57166584332785,156.41200599951574L82.68324917554855,156.46372959650023L82.79483250776926,156.48059814340576L83.0179991722107,156.47590961402625L83.35274916887285,156.3988617243428L83.46433250109354,156.37731124766316L83.57591583331426,156.44466843524694L83.79908249775569,156.5141722434793L84.24541582663853,156.46209238852765L84.46858249107997,156.48967805515528L84.69174915552139,156.52851493445178L85.13808248440425,156.55859136675178L85.24966581662497,156.53772017770558L85.36124914884567,156.53196093570534L85.5844158132871,156.52719405096258L85.80758247772853,156.50834908913978L86.03074914216995,156.40231832924871L86.25391580661137,156.4660280338073L86.36549913883209,156.39710606246226L86.70024913549423,156.46229379412353L86.92341579993565,156.4566601848419L87.03499913215637,156.43652946916117L87.14658246437709,156.4631263079248L87.2581657965978,156.50466106692437L87.36974912881851,156.5496613457948L87.48133246103923,156.5429145201104L87.70449912548065,156.52480946006642L87.81608245770137,156.5461775564935L88.37399911880493,156.52130247332383L88.48558245102565,156.50014692857934L88.70874911546707,156.5269090404034L88.82033244768779,156.54759646091148L88.9319157799085,156.57041609278548L89.26666577657063,156.55782921807852L89.48983244101207,156.5594167848203L89.71299910545349,156.51994100494846L89.93616576989491,156.54758888256814L90.15933243433635,156.54211787823223L90.38249909877777,156.5051675798909L90.49408243099847,156.5531105409064L90.60566576321919,156.5602028920802L90.94041575988135,156.5385681178726L91.38674908876419,156.45473705828104L91.49833242098491,156.4905048074935L91.72149908542634,156.50676169320457L91.83308241764703,156.4941966862111L92.05624908208847,156.38554529085627L92.50258241097131,156.4102927525239L93.06049907207489,156.31649429090973L93.84158239761987,156.43539356404065L93.95316572984059,156.43242087136596L94.17633239428203,156.50086554771315L94.28791572650275,156.53467210263574L94.39949905872345,156.57144052763323L94.51108239094415,156.5773124920652L94.62266572316487,156.5456110653273L94.73424905538559,156.5486006645363L94.95741571982701,156.5210782769439L95.06899905204773,156.5610448444186L95.51533238093059,156.54150400453102L95.62691571315129,156.51584389814423L95.85008237759273,156.55592991865484L96.07324904203415,156.53508201591322L96.40799903869629,156.55293348239735L96.63116570313771,156.56450359850882L96.74274903535843,156.5283241855358L96.85433236757915,156.56492610004386L97.18908236424129,156.56030879782918L97.30066569646199,156.48764233114343L97.41224902868271,156.4797082981732L97.52383236090343,156.4815817327048L97.63541569312413,156.45304165136406L97.85858235756557,156.51562087296134L97.97016568978628,156.52455720273525L98.08174902200699,156.508486092007L98.30491568644841,156.49101171839231L98.41649901866913,156.50705359626858L98.52808235088985,156.50094701645773L98.63966568311056,156.4239092476596L98.75124901533127,156.42127674047114L98.86283234755197,156.4978137119775L99.08599901199341,156.55097896143099L99.19758234421413,156.57747253161213L99.53233234087625,156.5861289615786L99.97866566975912,156.60767713280654L100.31341566642125,156.56700386766744L100.42499899864197,156.52977998011832L100.53658233086269,156.56434704365924L100.7597489953041,156.50113669064666L100.87133232752481,156.5382859784947L100.98291565974553,156.52820729511325L101.09449899196625,156.56626957853584L101.31766565640768,156.56463622254796L101.42924898862839,156.5605090561965L101.54083232084909,156.4708923993399L101.98716564973196,156.49019183625228L102.43349897861481,156.45127352057523L102.54508231083553,156.4910110381131L102.76824897527695,156.48924142924102L102.87983230749765,156.53658807966235L102.99141563971837,156.57345893638572L103.10299897193909,156.54343906563486L103.2145823041598,156.5561574206617L103.32616563638051,156.50511742221508L103.66091563304265,156.47437779430848L103.77249896526337,156.48559370201926L104.44199895858765,156.53545386334244L104.66516562302907,156.53590229104873L104.77674895524979,156.5517039886856L104.8883322874705,156.5473292831823L104.99991561969121,156.5526290388076L105.22308228413264,156.58448692732415L105.55783228079478,156.59489744430743L105.66941561301549,156.5836272888117L106.00416560967763,156.56368782807903L106.11574894189835,156.51744955537407L106.22733227411906,156.5331328362413L106.45049893856049,156.5545795810331L106.67366560300191,156.5614534847217L107.00841559966406,156.53999867051292L107.11999893188477,156.57006405317958L107.34316559632619,156.56665933175537L107.67791559298834,156.55631639364447L107.78949892520905,156.5485974531532L107.90108225742975,156.50538991874205L108.12424892187119,156.52980504728885L108.2358322540919,156.56946193471722L108.34741558631262,156.5684791948705L108.57058225075403,156.56301675833924L108.68216558297475,156.586946168059L108.79374891519547,156.60549637958192L109.35166557629903,156.6156184633508L109.79799890518188,156.52948683091094L109.90958223740259,156.50856268459137L110.13274890184402,156.49337425419512L110.35591556628546,156.52638680274208L110.57908223072687,156.56782793202632L110.69066556294759,156.55692858993103L110.8022488951683,156.4957712058828L110.91383222738902,156.53925413245955L111.02541555960974,156.5345284145053L111.13699889183044,156.5725055453882L111.36016555627187,156.5588265056507L111.5833322207133,156.5511471167854L111.80649888515472,156.56807232965L112.14124888181686,156.59078367420864L112.36441554625829,156.53878585259503L112.475998878479,156.48076796144034L112.58758221069972,156.52971690422115L113.03391553958257,156.51906508436596L113.257082204024,156.56064047864214L113.3686655362447,156.5601096595736L113.59183220068614,156.5751163318347L113.92658219734828,156.57666770070804L114.1497488617897,156.54877305354847L114.26133219401042,156.5352679690976L114.37291552623113,156.54645861283734L114.70766552289328,156.53996703366022L115.0424155195554,156.57315034116237L115.15399885177612,156.5762243714858L115.37716551621756,156.59897502137846L115.60033218065897,156.58487015324442L115.8234988451004,156.5706605370434L116.38141550620396,156.520805088013L116.6045821706454,156.5561285169253L116.71616550286612,156.49755920463033L116.82774883508684,156.53884624052273L116.93933216730753,156.52456068985168L117.27408216396968,156.52079856846044L117.94358215729396,156.5198678274748L118.16674882173538,156.54173599081298L118.27833215395609,156.55133584099636L118.3899154861768,156.55054456863374L118.50149881839752,156.56284807061132L118.61308215061824,156.58655449181788L119.05941547950108,156.59233526728286L119.28258214394252,156.58099545534293L119.39416547616324,156.60459702906513L119.72891547282536,156.59375197315327L119.84049880504608,156.5418771168566L119.9520821372668,156.55592078253824L120.0636654694875,156.55572616217182L120.17524880170822,156.52331079738374L120.39841546614964,156.5537107567133L120.50999879837036,156.58638018294485L120.62158213059108,156.5813076974435L120.73316546281178,156.58345745634523L120.95633212725322,156.5877815992019L121.29108212391536,156.52672939142L121.51424878835678,156.5413443216873L121.6258321205775,156.507172618519L121.84899878501892,156.5423796873052L121.96058211723964,156.56639739820065L122.29533211390178,156.57809470718718L122.40691544612248,156.57941259860104L122.63008211056392,156.5658265266969L122.74166544278462,156.57197568844103L123.52274876832962,156.5489349347448L123.63433210055034,156.55872062640174L123.74591543277106,156.59123213170042L123.85749876499176,156.58029788626473L123.96908209721246,156.55598193956686L124.08066542943318,156.56197279904364L124.1922487616539,156.5800866259143L124.41541542609534,156.5488182952279L124.52699875831604,156.54959295372848L124.63858209053674,156.56567222065365L124.9733320871989,156.54511160031277L125.08491541941962,156.5741133535636L125.19649875164033,156.5982270512447L125.30808208386102,156.604432772091L125.53124874830246,156.59084636324394L126.20074874162674,156.60762644942486L126.31233207384746,156.61312956540078L126.42391540606818,156.54364592381822L126.64708207050958,156.4959918518253L127.09341539939246,156.52492517712486L127.42816539605458,156.5520023746776L127.76291539271674,156.5503742141743L128.20924872159958,156.49495387266515L128.54399871826172,156.47144276552444L128.65558205048242,156.52239139043508L128.76716538270315,156.53468867980965L128.9903320471446,156.5430200756322L129.10191537936527,156.54962397059325L129.213498711586,156.53137265484577L129.54824870824814,156.53368229008314L129.65983204046887,156.51985773118474L129.88299870491028,156.53980328566487L130.10616536935171,156.52531171534935L130.21774870157242,156.5597793937873L130.44091536601383,156.5702377409297L130.66408203045526,156.57171613473037L130.775665362676,156.5839553135355L130.99883202711743,156.5888046922486L131.22199869155884,156.59717672745535L131.33358202377954,156.5863875853857L131.44516535600027,156.60211788235034L131.55674868822098,156.58783056492226L131.89149868488312,156.57738978966128L132.00308201710382,156.59429590655324L132.11466534932455,156.60536552386574L132.4494153459867,156.60714651654848L132.5609986782074,156.6159646464358L133.4536653359731,156.5436405283602L133.78841533263525,156.57426857870848L133.89999866485596,156.52820979179413L134.1231653292974,156.55657248736097L134.34633199373883,156.53919400135456L134.45791532595953,156.49694249640424L134.79266532262164,156.51900686554853L134.90424865484238,156.54279881001946L135.1274153192838,156.55082753665985L135.23899865150452,156.5573030465054L135.35058198372522,156.57076725699426L135.46216531594595,156.56671386613056L135.7969153126081,156.55499859441096L136.68958197037378,156.56183013591198L136.8011653025945,156.53818213405L136.91274863481522,156.55272291361308L137.13591529925665,156.5722471244424L137.3590819636981,156.5855349136139L137.47066529591876,156.59814488853308L137.5822486281395,156.5589591750248L137.8054152925809,156.56755988940483L138.02858195702234,156.58508197811807L138.14016528924307,156.56783294795505L138.25174862146378,156.57586423237808L138.58649861812592,156.6015182952862L138.69808195034665,156.60569029002673L138.80966528256732,156.6142588830205L139.3675819436709,156.5612948354543L139.59074860811234,156.5526815760504L139.70233194033304,156.5459857912453L139.92549860477448,156.55517528067762L140.0370819369952,156.56407274316078L140.26024860143661,156.5821208054675L140.9297485947609,156.5615430776861L141.0413319269816,156.54717623771705L141.26449859142303,156.57578552381042L141.48766525586447,156.51898248679396L141.93399858474731,156.54330410621748L142.15716524918875,156.58195955662694L142.38033191363016,156.5509761283768L142.6034985780716,156.58658543288544L142.82666524251303,156.56995761756974L143.04983190695444,156.55113964837022L143.16141523917514,156.54928371042334L143.27299857139587,156.5787520992237L143.38458190361658,156.58370098031503L143.4961652358373,156.5935809889173L143.94249856472015,156.59139265597702L144.1656652291616,156.56948131165507L144.2772485613823,156.5892588115193L144.94674855470657,156.57669278127486L145.169915219148,156.55648521449285L145.39308188358945,156.53753447983357L145.50466521581015,156.57768650405453L145.61624854803085,156.58407726549933L146.28574854135513,156.58805322592858L146.62049853801727,156.56207374573688L146.8436652024587,156.5814387431409L147.17841519912082,156.58627282764186L147.51316519578296,156.6077634524445L147.6247485280037,156.61110666102797L147.84791519244513,156.61671716890214L147.95949852466583,156.61465568416378L148.07108185688654,156.61302324959672L148.18266518910727,156.6041339354121L148.4058318535487,156.5940864475789L148.5174151857694,156.60324084644043L148.74058185021082,156.59397866768055L148.85216518243152,156.57028626984587L148.96374851465225,156.59604036095948L149.2984985113144,156.5923279305396L149.4100818435351,156.61036974973229L149.63324850797653,156.621817263424L150.52591516574225,156.56595924777181L150.63749849796295,156.5800236604287L150.74908183018366,156.6012684805048L150.8606651624044,156.60790053866396L151.19541515906653,156.58256848439447L151.3069984912872,156.58100234514058L151.41858182350794,156.58658591680725L151.75333182017008,156.59783183833406L151.8649151523908,156.60725145578826L151.9764984846115,156.60638011146227L152.31124848127365,156.57020428539042L153.6502484679222,156.58075752678593L153.98499846458435,156.60445427193093L154.20816512902576,156.60227479956737L154.3197484612465,156.60384011574587L154.5429151256879,156.60017308178928L154.65449845790863,156.59267947195386L154.98924845457077,156.58823993884806L155.3239984512329,156.59772113848533L155.43558178345364,156.59028782548495L155.54716511567432,156.58818167269905L155.65874844789505,156.5665422866672L155.77033178011575,156.56268707114413L155.88191511233646,156.5740319418564L155.9934984445572,156.5814434493644L156.1050817767779,156.5917349387326L156.32824844121933,156.589802744081L156.55141510566077,156.5962101504676L156.66299843788147,156.59797933420026L156.8861651023229,156.59161873648384L157.1093317667643,156.59757138345253L157.33249843120575,156.60283004066707L157.44408176342645,156.59653606404723L157.55566509564719,156.5471537140547L157.6672484278679,156.57232080084123L157.7788317600886,156.57997220978422L157.89041509230933,156.56078585117618L158.3367484211922,156.59247126656507L158.89466508229575,156.57754326168873L159.00624841451645,156.57817661043148L159.22941507895789,156.54340884970605L159.3409984111786,156.56954608253392L159.78733174006143,156.56636257947045L159.89891507228214,156.55785623211975L160.01049840450287,156.58774102551388L160.2336650689443,156.58041718228537L160.56841506560644,156.58939554334788L160.90316506226858,156.56556496567325L161.12633172671,156.56974834519886L161.34949839115143,156.59784876297869L161.46108172337213,156.612189320137L161.68424838781357,156.62118024653387L161.79583172003427,156.60505182745283L162.13058171669644,156.57826242791106L162.24216504891714,156.56535017122118L162.35374838113785,156.58079290650593L162.57691504557926,156.58074459124333L162.6884983778,156.5587559581528L162.8000817100207,156.57185816308674L163.02324837446213,156.591491119225L163.13483170668283,156.61089442739438L163.24641503890356,156.59320894190552L163.35799837112427,156.57477982714107L163.469581703345,156.57856358502968L163.5811650355657,156.59256589302373L164.13908169666925,156.59821051355937L164.25066502888996,156.60728895950737L164.4738316933314,156.60791056140056L164.92016502221426,156.61503416117063L165.03174835443497,156.60231222097298L165.2549150188764,156.61738708844317L165.70124834775925,156.61931087744057L165.92441501220068,156.59854533853428L166.1475816766421,156.59101053933514L166.37074834108353,156.59427863881822L166.48233167330426,156.60608138908478L166.59391500552496,156.61918486455576L166.7054983377457,156.61638560252467L166.92866500218707,156.62583111737416L167.26341499884924,156.63149842628388L167.37499833106995,156.60341097733468L167.59816499551138,156.60805962060263L167.7097483277321,156.61388884758625L167.82133165995282,156.60538099373454L168.0444983243942,156.59139274827788L168.49083165327707,156.56729115928655L168.7139983177185,156.54366526253148L168.8255816499392,156.58086408700788L169.04874831438065,156.58611568508894L169.16033164660138,156.59606801397027L169.4950816432635,156.51235436234128L169.6066649754842,156.54518627823018L170.16458163658777,156.55956165667678L170.2761649688085,156.53332710881497L170.3877483010292,156.5625932623276L170.49933163324994,156.58172983293778L170.72249829769135,156.5773468462817L170.94566496213275,156.6024078636284L171.05724829435349,156.59916677744474L171.1688316265742,156.58519552696396L171.2804149587949,156.59491514702958L171.39199829101562,156.55303767134305L171.50358162323633,156.57819209228657L171.8383316198985,156.60291501123132L172.17308161656064,156.59298869706353L172.39624828100204,156.56112081506032L172.61941494544345,156.57957027133517L172.73099827766418,156.5830835652391L172.8425816098849,156.59249254579186L172.95416494210562,156.57576274849143L173.06574827432632,156.58390803082065L173.5120816032092,156.5904905331492L173.958414932092,156.56435413344437L174.18158159653345,156.56211563546975L174.29316492875418,156.58945327342775L174.62791492541632,156.57483568651296L174.73949825763702,156.57980074661066L174.85108158985776,156.59719318241474L175.18583158651987,156.590522115787L175.520581583182,156.59935582974362L175.63216491540274,156.58794968594833L175.74374824762344,156.6032870908907L175.96691491206488,156.61753097074424L176.07849824428558,156.59424718749477L176.19008157650632,156.60440604076652L176.52483157316843,156.6053766172896L176.74799823760986,156.6022677869468L176.85958156983057,156.59921974751649L176.9711649020513,156.59672110597148L177.082748234272,156.61159325673415L177.1943315664927,156.60912690472912L177.30591489871344,156.61305107760083L177.52908156315488,156.58454578681977L177.64066489537558,156.57277565866215L177.9754148920377,156.56287876012334L178.53333155314127,156.55726070810817L179.87233153978983,156.58353132909224L179.98391487201056,156.59195935357133L180.09549820423126,156.5647745834387L180.207081536452,156.5936187283901L180.6534148653348,156.61054155248365L180.98816486199695,156.60282971056395L181.09974819421768,156.6049087673367L181.32291485865912,156.60995035445637L181.43449819087982,156.59723110948653L181.54608152310053,156.58228635963394L181.65766485532126,156.553255716252L181.8808315197627,156.54876183613254L182.1039981842041,156.5837152069438L182.2155815164248,156.58224520259836L182.3271648486455,156.58244597225402L182.55033151308695,156.58908563350323L182.66191484530768,156.60029686680218L182.77349817752838,156.60690969660058L182.99666484196982,156.61518656411042L183.21983150641125,156.60861440907496L183.8893314997355,156.61646042952094L184.11249816417694,156.6165246679312L184.67041482528052,156.62561272632647L184.7819981575012,156.63136739165526L185.22833148638406,156.60888176401878L185.78624814748764,156.61516409823096L185.89783147970837,156.60226833852124L186.3441648085912,156.61494902308274L186.79049813747406,156.62496916970903L187.1252481341362,156.59758886087886L187.45999813079834,156.60926751435753L187.57158146301907,156.58246650726537L187.68316479523975,156.6054796602186L188.0179147919019,156.59944379151793L188.12949812412262,156.61566603077014L188.46424812078476,156.61871711675167L188.6874147852262,156.59638350413422L188.7989981174469,156.58244973256802L188.91058144966763,156.60057237072482L189.69166477521262,156.5973675229437L189.80324810743332,156.60486870895497L189.91483143965402,156.54793395681412L190.02641477187476,156.58214911790415L190.2495814363162,156.59849852778265L190.3611647685369,156.53681446794508L190.4727481007576,156.56571852907575L190.5843314329783,156.55628871582795L190.695914765199,156.57549605195993L190.80749809741974,156.56739468707895L190.91908142964044,156.56123319758046L191.03066476186117,156.57072161702732L191.14224809408188,156.58367480903732L191.47699809074402,156.60620464128178L191.70016475518545,156.61874313244172L192.258081416289,156.59295605290185L192.36966474850973,156.59173632034L192.48124808073044,156.5982741801978L192.70441474517187,156.59339374326436L193.48549807071686,156.61203600181798L193.7086647351583,156.6113893563882L194.26658139626187,156.60413590534102L194.37816472848257,156.60900145220455L194.82449805736542,156.60157083556473L195.04766472180685,156.5897870326794L195.15924805402756,156.59466090792833L195.382414718469,156.6022075580467L195.4939980506897,156.5720482954964L195.71716471513113,156.59357838872884L195.82874804735184,156.5904291539747L196.49824804067612,156.59329895940036L196.60983137289682,156.5687874908781L196.72141470511755,156.56202954717273L197.27933136622113,156.50907510546867L197.3909146984418,156.55462669873106L198.39516468842825,156.57916036715358L198.50674802064896,156.56631057280828L198.8414980173111,156.5728266195984L198.9530813495318,156.5984171072734L199.0646646817525,156.58568607933444L199.28783134619394,156.59684866109626L199.51099801063538,156.592499890849L199.7341646750768,156.59121815544415L200.06891467173895,156.6021283364778L200.18049800395968,156.57081729831404L200.40366466840106,156.58414911889875L200.5152480006218,156.58076684482205L200.73841466506323,156.5831669892821L200.96158132950464,156.5878037986584L201.07316466172537,156.59752459381295L201.2963313261668,156.6125053632292L201.4079146583875,156.5962942789322L201.85424798727036,156.6137763232187L201.96583131949106,156.56207618239986L202.1889979839325,156.58208652350012L202.3005813161532,156.60276248411748L202.41216464837393,156.58279129439052L202.52374798059464,156.5962813124047L202.74691464503607,156.60189440911157L202.85849797725677,156.60068039821812L202.97008130947748,156.58176407161287L203.08166464169818,156.6050581988271L203.52799797058105,156.59215944917696L203.7511646350225,156.5800081384788L203.8627479672432,156.57806225643665L203.97433129946393,156.57474392385367L204.19749796390533,156.5810425846628L204.42066462834674,156.56455124085252L204.64383129278818,156.5789659668004L204.86699795722961,156.52297476058763L204.97858128945032,156.56024874054808L205.09016462167105,156.54865800390687L205.3133312861125,156.56818036555586L205.4249146183332,156.58105262389665L205.5364979505539,156.60447041280793L205.64808128277463,156.61868200354414L205.7596646149953,156.5701440197988L205.87124794721603,156.590179884561L206.09441461165744,156.58616888398538L206.20599794387817,156.5950957099005L206.5407479405403,156.61305718179875L206.65233127276102,156.61993503679182L206.87549793720245,156.6078745814139L206.9870812694232,156.60326571824925L207.3218312660853,156.60541595849477L207.433414598306,156.60538974680003L207.54499793052673,156.61894273767635L207.65658126274744,156.61684360586548L207.76816459496817,156.61688092756816L207.99133125940958,156.60815093349845L208.43766458829245,156.59484759252172L208.66083125273386,156.6129083113724L208.77241458495456,156.61898700937348L208.8839979171753,156.6219416132381L209.21874791383743,156.62916472380223L209.33033124605814,156.62690401921762L209.55349791049957,156.59981527859074L209.99983123938242,156.6158889230138L210.11141457160312,156.60369079605192L210.22299790382385,156.6182142334905L210.33458123604456,156.62014077452247L210.557747900486,156.62297725766666L211.00408122936886,156.61016744260522L211.11566456158957,156.6221002214225L211.33883122603098,156.61799837942525L211.45041455825168,156.62431172582788L211.5619978904724,156.60751048003397L211.67358122269312,156.62050604387974L211.89674788713455,156.6096089876678L212.2314978837967,156.58608073603196L212.34308121601742,156.58185920796723L212.45466454823813,156.58824887761398L212.56624788045883,156.59825607985408L212.67783121267956,156.59179165402534L213.01258120934168,156.61031658925444L213.12416454156238,156.5935779116811L213.57049787044525,156.59840443725233L213.68208120266598,156.59417594961076L213.9052478671074,156.60454494693218L214.01683119932812,156.60763621407426L214.1284145315488,156.62058148430393L214.57474786043167,156.62834864644174L214.9094978570938,156.63011494715022L215.13266452153525,156.60510142345976L215.4674145181974,156.60719694753107L215.5789978504181,156.58937125886138L215.6905811826388,156.54567020284995L215.8021645148595,156.56431197368408L215.91374784708023,156.59458694006983L216.13691451152167,156.6028210176458L216.24849784374237,156.59314791514478L216.36008117596307,156.59789611134994L216.69483117262524,156.59680249110167L216.80641450484595,156.6039184586952L217.02958116928735,156.59016116435285L217.14116450150806,156.59802908893124L217.2527478337288,156.60706889689786L217.58749783039093,156.6050944570759L217.81066449483237,156.61849209777407L217.92224782705307,156.620188087091L218.0338311592738,156.62451031656002L218.1454144914945,156.59551898056995L218.9264978170395,156.59357354314452L219.0380811492602,156.61050803969124L219.37283114592236,156.60095476717186L219.9307478070259,156.61281445781836L220.37708113590875,156.61946807055708L220.6002478003502,156.6271775145631L220.82341446479163,156.63173758413157L221.04658112923306,156.6198315913448L221.15816446145374,156.62519197458099L221.26974779367447,156.6152470156988L221.38133112589517,156.62514796527864L221.82766445477804,156.58808073774543L221.93924778699875,156.60800916678343L222.05083111921948,156.61567308081553L222.2739977836609,156.60035400362844L222.38558111588162,156.59905200720914L222.4971644481023,156.61543096018485L222.94349777698517,156.61245736774558L223.1666644414266,156.6234741765067L223.389831105868,156.6257111634448L223.61299777030945,156.62543836786904L223.72458110253018,156.60328742445287L223.9477477669716,156.59609873849567L224.39408109585443,156.59540434328295L224.61724776029587,156.61111324914881L224.72883109251657,156.62266770494347L225.06358108917874,156.61673233541399L225.39833108584085,156.6177998068858L225.84466441472372,156.61582739605274L226.06783107916513,156.62420576923182L226.17941441138586,156.61862244364036L226.514164408048,156.6219216427954L226.96049773693085,156.60929047094905L227.07208106915155,156.60953801056888L227.18366440137228,156.59153277828818L227.295247733593,156.6109194228323L227.62999773025513,156.6183376194537L227.74158106247586,156.59902223695764L227.85316439469656,156.61541309803397L228.07633105913797,156.6132840684625L228.18791439135867,156.62381701490744L228.2994977235794,156.61824360408417L228.52266438802084,156.6028867932297L228.63424772024155,156.59101999855164L228.9689977169037,156.5974707206208L229.08058104912442,156.60785196841974L229.30374771356583,156.61830146063465L229.52691437800723,156.61089170782168L229.63849771022797,156.6095058196931L229.75008104244867,156.59302583770398L230.53116436799368,156.61181525848176L230.6427477002144,156.62308891094844L230.75433103243512,156.5999073664123L230.8659143646558,156.5940955282287L231.5354143579801,156.60133680565013L231.6469976902008,156.60698378281722L231.7585810224215,156.61520255416718L231.87016435464224,156.6115487402024L231.98174768686295,156.605033976227L232.20491435130438,156.61902014159557L232.5396643479665,156.61781663475594L232.87441434462866,156.602110924208L233.3207476735115,156.61693298383267L233.43233100573224,156.62319559308423L233.54391433795294,156.59987924787433L233.65549767017367,156.60985092202174L233.76708100239435,156.59233587481876L233.99024766683578,156.60198827779888L234.1018309990565,156.6171927225387L234.54816432793936,156.61651325424853L234.8829143246015,156.62474767376267L234.99449765682218,156.61962545377796L235.32924765348434,156.62777502812617L235.44083098570505,156.62756924028423L235.55241431792578,156.6325413000299L235.66399765014648,156.63345835064158L235.7755809823672,156.63429269562556L235.99874764680862,156.6215503793327L236.11033097902936,156.6214684696178L236.22191431125006,156.61816002058734L236.33349764347076,156.62282045515852L236.44508097569147,156.62426759165834L236.89141430457434,156.60478210384727L237.00299763679504,156.6162460401287L237.11458096901575,156.6185091227901L237.44933096567792,156.62106205007814L237.67249763011932,156.6271459631683L237.78408096234006,156.62503960046874L237.89566429456073,156.62787501407502L238.11883095900217,156.61750365520385L238.23041429122287,156.62301746614577L238.3419976234436,156.62981023554684L238.56516428788504,156.60878411978285L238.67674762010574,156.62127022772907L239.01149761676788,156.6197227599576L239.2346642812093,156.62276970442682L239.45783094565073,156.59742942577242L239.56941427787143,156.59844604235903L239.79258094231287,156.6150673812748L240.127330938975,156.58578777611632L240.35049760341644,156.5884533000487L240.46208093563718,156.60140681020968L240.57366426785788,156.571316616537L240.7968309322993,156.5727923342752L241.01999759674072,156.58361880658165L241.13158092896143,156.60113688046633L241.24316426118216,156.60822943082204L241.689497590065,156.61982944257957L241.80108092228573,156.62056072872102L242.02424758672717,156.61354173235708L242.24741425116855,156.61251840419717L242.80533091227213,156.62351079837768L243.251664241155,156.61997278572352L243.36324757337567,156.6279834272935L243.4748309055964,156.62209738777608L243.5864142378171,156.611031113535L244.92541422446567,156.6004038241646L245.1485808889071,156.60234992150296L245.37174755334854,156.6145443736607" fill="none"></path></g></g></g></g><g opacity="0.2"><g><g><g><path style="fill: none;" stroke="rgb(255, 112, 67)" stroke-width="2px" d="M22.874583105246227,40.903453520306215L22.986166437466938,89.63426440855042L23.432499766349792,111.93895134507716L23.544083098570507,117.43849147208557L23.767249763011932,124.44816968695969L23.878833095232647,133.26692708033156L23.990416427453358,138.71630493019165L24.213583091894787,144.0288139915226L24.325166424115498,146.78280408040098L24.436749756336212,150.22031829503396L24.548333088556923,151.15509693787595L24.99466641743978,150.9367761145079L25.998916407426197,154.92660192488918L26.11049973964691,154.72164889712334L26.333666404088337,155.5398740769185L26.668416400750477,154.8522862407305L26.77999973297119,155.08425641780516L27.003166397412617,155.0373191521189L27.226333061854046,155.2375475966512L27.337916394074757,155.4660619945645L27.561083058516186,155.43963628458448L27.78424972295761,155.35474567956857L27.895833055178326,155.54392786828453L28.230583051840465,155.76750310844122L28.342166384061176,155.1198581016264L28.45374971628189,155.66997130938276L28.565333048502605,155.65343281817525L28.67691638072332,155.69582470112772L29.01166637738546,155.17206227256557L29.12324970960617,155.3632913743595L29.3464163740476,156.08666099116977L29.56958303848902,155.6568954092262L29.68116637070974,155.9961777650209L29.79274970293045,155.67902765688166L29.90433303515116,155.47172924771627L30.239083031813305,155.63282027919306L30.350666364034016,156.1593354282035L30.46224969625473,155.75062629338245L30.573833028475445,155.36980963568664L30.79699969291687,155.7886130348726L31.13174968957901,155.7759543330787L31.689666350682575,155.74201325648974L31.80124968290329,155.78772742946836L31.912833015124004,156.06343501695608L32.02441634734472,155.79647216289376L32.13599967956543,156.1166905492803L32.24758301178615,155.18303144647302L32.80549967288971,156.03398255735402L33.69816633065541,155.60784777233235L34.03291632731755,155.85629650793652L34.14449965953827,155.98968149295146L34.92558298508326,155.99594329260967L35.2603329817454,155.840094308964L35.48349964618683,156.23881518198314L35.59508297840754,155.85498169373267L35.70666631062826,156.11202966319007L36.15299963951111,156.18942267823883L36.26458297173182,156.04479858325183L36.37616630395254,156.11226843784732L36.71091630061468,156.14339453092674L36.82249963283539,155.09467358963957L37.15724962949753,155.95293200572894L37.60358295838038,156.08221420157528L37.8267496228218,156.16803755744203L38.04991628726324,156.0407128238073L38.16149961948395,156.04913895200934L38.27308295170466,156.10733214825476L38.38466628392538,156.38463975300917L38.83099961280823,156.26943160828597L39.05416627724966,156.15524441045818L39.388916273911796,156.06457935465914L39.50049960613251,156.21327600358535L39.61208293835322,156.1880816024079L39.83524960279465,156.35338665404038L39.94683293501536,155.9515306685762L40.058416267236076,155.63658486401727L40.393166263898216,156.5053088522094L40.616332928339645,156.07200915437383L40.72791626056035,155.69015601389395L40.951082925001785,156.19982783963627L41.06266625722249,156.45574327269063L41.39741625388463,156.2490495083593L41.955332914988205,156.42855507922354L42.06691624720891,156.35317085457223L42.17849957942963,155.97097275761178L42.40166624387105,156.190850038005L42.513249576091766,156.26474640255472L42.73641624053319,156.3660153297419L42.959582904974624,156.42638782276228L43.07116623719533,156.17022276980535L43.182749569416046,156.02846110254157L43.29433290163676,156.40049780217223L43.517499566078186,156.40850298248466L43.6290828982989,156.13713320929585L44.410166223843895,156.37325822076593L44.856499552726746,156.29650208752008L45.302832881609596,156.27094017294684L45.414416213830314,155.98999448135356L45.525999546051025,156.330871924758L45.972332874933876,156.47633049116203L46.307082871596016,156.12984699704398L46.641832868258156,155.97526221645734L46.753416200478874,156.13071282406696L47.088166197141014,156.51266203310422L47.199749529361725,156.1716082424257L47.422916193803154,156.2202872007321L47.534499526023865,156.41179472357598L47.646082858244576,156.48352897045834L47.869249522686005,156.23110764838282L47.980832854906716,156.41409652979564L48.203999519348145,156.41256230104185L48.315582851568855,156.23436298470435L48.42716618378957,156.2689893732413L48.76191618045171,155.77045158108598L49.096666177113846,156.46538657801193L49.65458283821742,156.48488389414385L49.877749502658844,156.56837236280504L50.100916167100266,156.22237612046274L50.212499499320984,156.52863024516205L50.770416160424546,156.020833638521L51.105166157086686,156.2678533412633L51.216749489307404,156.44497948621827L51.32833282152812,156.28156220937396L51.439916153748825,156.31182674779973L51.663082818190254,155.81152345128726L52.10941614707311,156.2802736866739L52.332582811514534,156.192412261235L52.55574947595596,156.28891438939903L52.77891614039739,156.47976756750361L53.336832801500954,156.40747652333644L53.55999946594238,156.47199100376744L54.006332794825234,156.54967549598794L54.564249455928795,156.26115620808017L54.78741612037023,156.60905077168889L54.89899945259094,156.38805385416165L55.23374944925308,156.3518376960691L55.45691611369451,156.4496578501832L55.56849944591522,155.978017566056L55.68008277813593,156.447098207966L55.90324944257736,156.51543301569075L56.01483277479807,156.48440039936423L56.12641610701879,156.3805424014016L56.57274943590164,156.3246543426289L56.68433276812235,156.41931802245108L56.90749943256378,156.41817749402838L57.24224942922592,156.56732100888914L57.68858275810878,156.3770550724357L57.80016609032948,156.30117815097844L57.9117494225502,156.1574750652957L58.02333275477092,156.5859894069373L58.24649941921234,156.39165284732695L58.58124941587448,156.48518881583453L58.6928327480952,156.33244346952114L58.8044160803159,156.39484919208684L59.13916607697804,156.35909238839315L59.25074940919876,156.28610176614947L59.47391607364018,156.42192555703258L60.14341606696447,156.27131823282085L60.36658273140589,155.9753795721698L60.70133272806803,156.01436533105107L60.81291606028875,156.4254317680785L61.03608272473017,156.41058982578403L61.14766605695089,156.16983168368625L61.70558271805445,156.31489126158175L61.81716605027517,156.44985430448236L62.04033271471659,156.2291285853107L62.26349937915802,156.60487204339555L62.37508271137873,156.2269886959147L62.48666604359945,156.51063479383905L62.82141604026159,156.34849323752502L62.93299937248229,156.47728960820848L63.26774936914444,156.4936745331324L63.37933270136515,156.4486540077036L63.60249936580658,156.32797376449096L63.71408269802729,156.46772962902818L63.93724936246872,156.4166117304084L64.38358269135158,156.46252804919922L64.4951660235723,156.42427455351392L64.606749355793,156.35394340651013L64.82991602023444,156.54177505594762L64.94149935245514,156.58670743014693L65.27624934911728,156.26832724561936L65.387832681338,156.21279017842244L65.49941601355872,156.4114541888483L65.61099934577942,156.50711040281578L65.83416601022084,156.05360946371067L65.94574934244156,156.34612120610115L66.05733267466228,156.3930266381541L66.16891600688298,156.3748156338458L67.17316599686941,156.51097934698404L67.2847493290901,156.47821022911552L67.50791599353154,156.5707277155562L67.8426659901937,156.55508897637455L68.62374931573868,156.39133504877472L68.73533264795938,156.0979804993654L69.18166597684225,156.40165346314797L69.29324930906296,156.33025383540493L69.40483264128366,156.52771497218586L69.6279993057251,156.39316507188465L69.85116597016652,156.31095954644812L70.29749929904938,156.4505363001157L71.3017492890358,156.56817711851258L71.41333262125652,156.1467992209159L71.52491595347722,156.58975888780714L71.63649928569794,156.27506635557847L71.85966595013936,156.36316891593464L71.97124928236008,156.5120636922557L72.30599927902222,156.48435394108193L72.64074927568436,156.23602804356628L73.42183260122935,156.40689289676706L73.53341593345007,156.48798790493498L73.64499926567078,156.5350633653381L73.75658259789148,156.40844402079972L73.97974926233292,156.393693695433L74.09133259455363,156.3922475282786L74.20291592677435,156.34748471934049L74.42608259121576,156.43747766869686L74.53766592343648,156.56103297001135L74.6492492556572,156.44153023511782L74.87241592009863,156.51668092847427L75.09558258454004,156.418034220271L75.20716591676076,156.55050122099846L75.6534992456436,156.57030886650537L76.4345825711886,156.43630960888694L76.76933256785075,156.11065915880087L76.88091590007147,156.3499937653512L77.10408256451288,156.32663421237217L77.32724922895432,156.50586067502218L77.66199922561646,156.54444336722415L78.8894158800443,156.51564815040214L79.22416587670644,156.52440318382293L79.33574920892715,156.49371340273066L79.44733254114787,156.6133341879701L79.6704992055893,156.3524349016027L79.89366587003072,156.4828970930041L80.00524920225143,156.57623332077458L80.22841586669286,156.47934110736125L80.78633252779643,156.34044968058004L80.89791586001714,156.6259375123505L81.56741585334142,156.48858086797588L81.79058251778285,156.41534595882214L81.90216585000357,156.41731856852516L82.01374918222427,156.4786418728669L82.12533251444498,156.46939277578073L82.2369158466657,156.35437548347377L82.34849917888641,156.48417844529405L82.46008251110713,156.32954043935058L82.57166584332785,156.43117943439216L82.68324917554855,156.54131499197695L82.79483250776926,156.5059009637641L83.0179991722107,156.46887681995693L83.35274916887285,156.28328988981767L83.46433250109354,156.34498553264368L83.57591583331426,156.5457042166226L83.79908249775569,156.61842795582783L84.24541582663853,156.38397260610014L84.46858249107997,156.53105655509674L84.69174915552139,156.58677025339648L85.13808248440425,156.60370601520185L85.24966581662497,156.50641339413625L85.36124914884567,156.523322072705L85.5844158132871,156.52004372384846L85.80758247772853,156.4800816464056L86.03074914216995,156.24327218941207L86.25391580661137,156.56159259064518L86.36549913883209,156.29372310544474L86.70024913549423,156.56007539161544L86.92341579993565,156.44820977091945L87.03499913215637,156.4063333956401L87.14658246437709,156.50302156607023L87.2581657965978,156.56696320542375L87.36974912881851,156.61716176410036L87.48133246103923,156.5327942815838L87.70449912548065,156.49765187000045L87.81608245770137,156.5782297011341L88.37399911880493,156.4839898485693L88.48558245102565,156.46841361146267L88.70874911546707,156.56705220813947L88.82033244768779,156.5786275916736L88.9319157799085,156.60464554059644L89.26666577657063,156.53894890601813L89.48983244101207,156.561798134933L89.71299910545349,156.4607273351407L89.93616576989491,156.58906069899763L90.15933243433635,156.53391137172838L90.38249909877777,156.4497421323789L90.49408243099847,156.6250249824297L90.60566576321919,156.57084141884096L90.94041575988135,156.5061159565611L91.38674908876419,156.32899046889375L91.49833242098491,156.54415643131216L91.72149908542634,156.53114702177118L91.83308241764703,156.4753491757209L92.05624908208847,156.22256819782405L92.50258241097131,156.44741394502532L93.06049907207489,156.17579659848846L93.84158239761987,156.61374247373703L93.95316572984059,156.42796183235393L94.17633239428203,156.6035325622339L94.28791572650275,156.58538193501965L94.39949905872345,156.62659316512944L94.51108239094415,156.5861204387132L94.62266572316487,156.49805892522045L94.73424905538559,156.55308506334984L94.95741571982701,156.47979469555528L95.06899905204773,156.62099469563069L95.51533238093059,156.51219274469966L95.62691571315129,156.47735373856403L95.85008237759273,156.61605894942076L96.07324904203415,156.5038101618008L96.40799903869629,156.5797106821235L96.63116570313771,156.58185877267604L96.74274903535843,156.4740550660763L96.85433236757915,156.61982897180596L97.18908236424129,156.55338284450713L97.30066569646199,156.37864263111481L97.41224902868271,156.46780724871783L97.52383236090343,156.4843918845022L97.63541569312413,156.41023152935293L97.85858235756557,156.60948970535722L97.97016568978628,156.53796169739618L98.08174902200699,156.4843794259146L98.30491568644841,156.46480015797027L98.41649901866913,156.53111641308294L98.52808235088985,156.49178714674144L98.63966568311056,156.30835259446243L98.75124901533127,156.41732797968845L98.86283234755197,156.612619169237L99.08599901199341,156.63072683561123L99.19758234421413,156.61721288688383L99.53233234087625,156.59911360652833L99.97866566975912,156.63999938964844L100.31341566642125,156.5059939699588L100.42499899864197,156.47394414879463L100.53658233086269,156.61619763897062L100.7597489953041,156.4063211611278L100.87133232752481,156.59400991026678L100.98291565974553,156.513089270041L101.09449899196625,156.6233630036697L101.31766565640768,156.56218618856613L101.42924898862839,156.5543183066693L101.54083232084909,156.33646741405502L101.98716564973196,156.51914099162082L102.43349897861481,156.39289604705965L102.54508231083553,156.55061731441992L102.76824897527695,156.48658701593286L102.87983230749765,156.60760805529435L102.99141563971837,156.62876522147073L103.10299897193909,156.4984092595086L103.2145823041598,156.57523495320189L103.32616563638051,156.4285574245452L103.66091563304265,156.42826835244855L103.77249896526337,156.5024175635854L104.44199895858765,156.6102441053272L104.66516562302907,156.5365749326082L104.77674895524979,156.5754065351409L104.8883322874705,156.54076722492738L104.99991561969121,156.5605786722455L105.22308228413264,156.632273760099L105.55783228079478,156.61051321978232L105.66941561301549,156.5667220555681L106.00416560967763,156.53377863698006L106.11574894189835,156.4480921463166L106.22733227411906,156.55665775754215L106.45049893856049,156.58674969822079L106.67366560300191,156.5717643402546L107.00841559966406,156.50781644919974L107.11999893188477,156.61516212717962L107.34316559632619,156.561552249619L107.67791559298834,156.54080198647813L107.78949892520905,156.53701904241635L107.90108225742975,156.4405786171253L108.12424892187119,156.56642774010908L108.2358322540919,156.62894726585975L108.34741558631262,156.5670050851004L108.57058225075403,156.55482310354233L108.68216558297475,156.62284028263866L108.79374891519547,156.6333216968663L109.35166557629903,156.6308015890041L109.79799890518188,156.40028938225117L109.90958223740259,156.477176465112L110.13274890184402,156.47059160860078L110.35591556628546,156.57590562556254L110.57908223072687,156.62998962595262L110.69066556294759,156.54057957678816L110.8022488951683,156.40403512981044L110.91383222738902,156.60447852232468L111.02541555960974,156.5274398375739L111.13699889183044,156.6294712417126L111.36016555627187,156.53830794604443L111.5833322207133,156.53962803348742L111.80649888515472,156.59346014894692L112.14124888181686,156.62485069104662L112.36441554625829,156.4607891201746L112.475998878479,156.39374112470833L112.58758221069972,156.60314031839238L113.03391553958257,156.50308735458316L113.257082204024,156.62300357005637L113.3686655362447,156.55931343097083L113.59183220068614,156.5976263402263L113.92658219734828,156.57899475401808L114.1497488617897,156.50693108280916L114.26133219401042,156.51501034242122L114.37291552623113,156.56324457844696L114.70766552289328,156.5302296648946L115.0424155195554,156.6229253024156L115.15399885177612,156.58083541697096L115.37716551621756,156.63310099621742L115.60033218065897,156.56371285104342L115.8234988451004,156.54934611274183L116.38141550620396,156.4460219144674L116.6045821706454,156.60911366029376L116.71616550286612,156.40970523618788L116.82774883508684,156.60077679436137L116.93933216730753,156.50313236384508L117.27408216396968,156.5151553863736L117.94358215729396,156.5184717159963L118.16674882173538,156.57453823582026L118.27833215395609,156.5657356162714L118.3899154861768,156.5493576600898L118.50149881839752,156.5813033235777L118.61308215061824,156.62211412362774L119.05941547950108,156.6010064304803L119.28258214394252,156.56398573743303L119.39416547616324,156.63999938964844L119.72891547282536,156.5774843892855L119.84049880504608,156.46406483241162L119.9520821372668,156.57698628106067L120.0636654694875,156.55543423162223L120.17524880170822,156.47468775020164L120.39841546614964,156.59931069570754L120.50999879837036,156.6353843222922L120.62158213059108,156.57369896919144L120.73316546281178,156.5866820946978L120.95633212725322,156.5942678134869L121.29108212391536,156.4351510797472L121.51424878835678,156.56326671708823L121.6258321205775,156.4559150637666L121.84899878501892,156.5951902904845L121.96058211723964,156.60242396454385L122.29533211390178,156.5956406706669L122.40691544612248,156.58138943572186L122.63008211056392,156.54544741884072L122.74166544278462,156.5811994310572L123.52274876832962,156.51437380420043L123.63433210055034,156.57339916388713L123.74591543277106,156.63999938964844L123.85749876499176,156.56389651811116L123.96908209721246,156.5195080195201L124.08066542943318,156.57095908825883L124.1922487616539,156.60725736622027L124.41541542609534,156.50191579919831L124.52699875831604,156.55075494147934L124.63858209053674,156.58979112104143L124.9733320871989,156.51427066980142L125.08491541941962,156.6176159834399L125.19649875164033,156.63439759776628L125.30808208386102,156.61374135336044L125.53124874830246,156.57046674997338L126.20074874162674,156.63279657869617L126.31233207384746,156.6213842393647L126.42391540606818,156.4394204614444L126.64708207050958,156.42451074383587L127.09341539939246,156.5683251650742L127.42816539605458,156.59261817100676L127.76291539271674,156.54793197341934L128.20924872159958,156.41182336040143L128.54399871826172,156.43617610481337L128.65558205048242,156.59881432780102L128.76716538270315,156.5531346138715L128.9903320471446,156.55551716936606L129.10191537936527,156.5595298130348L129.213498711586,156.50399568122452L129.54824870824814,156.53714674293923L129.65983204046887,156.49912089283714L129.88299870491028,156.56972161738506L130.10616536935171,156.50357435987607L130.21774870157242,156.6114809114442L130.44091536601383,156.58592526164335L130.66408203045526,156.57393372543137L130.775665362676,156.6023140817432L130.99883202711743,156.59607876031822L131.22199869155884,156.60973478026548L131.33358202377954,156.57020387228124L131.44516535600027,156.62571332779729L131.55674868822098,156.56639958878014L131.89149868488312,156.56172862676982L132.00308201710382,156.61965508189118L132.11466534932455,156.6219699498345L132.4494153459867,156.6098180055726L132.5609986782074,156.6291918412668L133.4536653359731,156.4351543512468L133.78841533263525,156.62021065423093L133.89999866485596,156.45912161142257L134.1231653292974,156.5991165307112L134.34633199373883,156.51312627234495L134.45791532595953,156.43356523897882L134.79266532262164,156.5521034192649L134.90424865484238,156.57848672672588L135.1274153192838,156.56287062662042L135.23899865150452,156.56701631127376L135.35058198372522,156.59096357272753L135.46216531594595,156.560633779835L135.7969153126081,156.53742568683157L136.68958197037378,156.57207744816353L136.8011653025945,156.502710131257L136.91274863481522,156.5745340829577L137.13591529925665,156.60153344068638L137.3590819636981,156.6054665973712L137.47066529591876,156.61705985091183L137.5822486281395,156.50018060476233L137.8054152925809,156.58046096097493L138.02858195702234,156.61136511118792L138.14016528924307,156.54195940271052L138.25174862146378,156.58791115901263L138.58649861812592,156.63999938964844L138.69808195034665,156.6119482821375L138.80966528256732,156.62711177251117L139.3675819436709,156.481848764105L139.59074860811234,156.53976168694453L139.70233194033304,156.53594211403765L139.92549860477448,156.56895951482608L140.0370819369952,156.57741893688555L140.26024860143661,156.60919289892757L140.9297485947609,156.53067648601404L141.0413319269816,156.52562597776347L141.26449859142303,156.6186994529505L141.48766525586447,156.43377793126925L141.93399858474731,156.57978653535272L142.15716524918875,156.63994273224114L142.38033191363016,156.5045009860016L142.6034985780716,156.63999938964844L142.82666524251303,156.5450158945962L143.04983190695444,156.52291269457092L143.16141523917514,156.54649980350305L143.27299857139587,156.6229546824242L143.38458190361658,156.59112430195208L143.4961652358373,156.60840100182065L143.94249856472015,156.58811015656664L144.1656652291616,156.53661429517214L144.2772485613823,156.61892506131562L144.94674855470657,156.5578437359082L145.169915219148,156.52617386431987L145.39308188358945,156.50910837784463L145.50466521581015,156.63791454038596L145.61624854803085,156.5936634076665L146.28574854135513,156.59401716657246L146.62049853801727,156.52310452544938L146.8436652024587,156.61048623924694L147.17841519912082,156.59352395439328L147.51316519578296,156.63999938964844L147.6247485280037,156.61612147390323L147.84791519244513,156.6251329307134L147.95949852466583,156.6115634570562L148.07108185688654,156.6105745977461L148.18266518910727,156.5907999641352L148.4058318535487,156.57901521582906L148.5174151857694,156.61697244473274L148.74058185021082,156.5800853995407L148.85216518243152,156.53474767309382L148.96374851465225,156.6346714976299L149.2984985113144,156.58675928490976L149.4100818435351,156.63743247852133L149.63324850797653,156.63898853396154L150.52591516574225,156.48217222429358L150.63749849796295,156.60112027941403L150.74908183018366,156.633135710619L150.8606651624044,156.61784862590267L151.19541515906653,156.54457040299025L151.3069984912872,156.5786531362597L151.41858182350794,156.59496127430725L151.75333182017008,156.6147007206243L151.8649151523908,156.62138088196951L151.9764984846115,156.60507309497328L152.31124848127365,156.51594054628265L153.6502484679222,156.5965873888792L153.98499846458435,156.63999938964844L154.20816512902576,156.599005591022L154.3197484612465,156.60618809001363L154.5429151256879,156.5946725308544L154.65449845790863,156.5814390572007L154.98924845457077,156.5815806391894L155.3239984512329,156.6119429379412L155.43558178345364,156.57913785598436L155.54716511567432,156.5850224435202L155.65874844789505,156.53408320761943L155.77033178011575,156.55690424785948L155.88191511233646,156.59104924792481L155.9934984445572,156.59256071062643L156.1050817767779,156.6071721727849L156.32824844121933,156.58690445210357L156.55141510566077,156.60582126004758L156.66299843788147,156.60063310979925L156.8861651023229,156.58207783990923L157.1093317667643,156.60650035390555L157.33249843120575,156.6107180264889L157.44408176342645,156.58709509911742L157.55566509564719,156.47308018906594L157.6672484278679,156.610071431021L157.7788317600886,156.59144932319867L157.89041509230933,156.5320063132641L158.3367484211922,156.63999938964844L158.89466508229575,156.55515125437418L159.00624841451645,156.5791266335456L159.22941507895789,156.4912572086179L159.3409984111786,156.60875193177574L159.78733174006143,156.56158732487523L159.89891507228214,156.54509671109366L160.01049840450287,156.63256821560512L160.2336650689443,156.56943141744264L160.56841506560644,156.60286308494162L160.90316506226858,156.52981909916133L161.12633172671,156.57602341448725L161.34949839115143,156.63999938964844L161.46108172337213,156.63370015587446L161.68424838781357,156.63466663612917L161.79583172003427,156.5808591988312L162.13058171669644,156.53807832859843L162.24216504891714,156.54598178618636L162.35374838113785,156.60395700943303L162.57691504557926,156.58067211834947L162.6884983778,156.52577300851698L162.8000817100207,156.59151147048772L163.02324837446213,156.62094055343235L163.13483170668283,156.63999938964844L163.24641503890356,156.5666807136722L163.35799837112427,156.5471361549944L163.469581703345,156.58423922186262L163.5811650355657,156.6135693550148L164.13908169666925,156.6066774443628L164.25066502888996,156.62090662842942L164.4738316933314,156.60884296424035L164.92016502221426,156.62571956082567L165.03174835443497,156.58322931067653L165.2549150188764,156.63999938964844L165.70124834775925,156.6221965609367L165.92441501220068,156.56739703017487L166.1475816766421,156.57970834053643L166.37074834108353,156.59918078804282L166.48233167330426,156.62378551448464L166.59391500552496,156.63884007776224L166.7054983377457,156.61218670947804L166.92866500218707,156.63999938964844L167.26341499884924,156.63999938964844L167.37499833106995,156.56127980391085L167.59816499551138,156.61503258550454L167.7097483277321,156.62263268806169L167.82133165995282,156.592619212957L168.0444983243942,156.57041038009294L168.49083165327707,156.53113877579955L168.7139983177185,156.50822641739882L168.8255816499392,156.63666232372248L169.04874831438065,156.59399308221052L169.16033164660138,156.61099650729227L169.4950816432635,156.3867838848978L169.6066649754842,156.59443415206354L170.16458163658777,156.5811247243467L170.2761649688085,156.49397528702224L170.3877483010292,156.60649249259654L170.49933163324994,156.61043468885308L170.72249829769135,156.57077236629758L170.94566496213275,156.63999938964844L171.05724829435349,156.59430514816924L171.1688316265742,156.56423865124276L171.2804149587949,156.60949457712806L171.39199829101562,156.49022145781322L171.50358162323633,156.61592372370183L171.8383316198985,156.63999938964844L172.17308161656064,156.57809922581188L172.39624828100204,156.5133189920555L172.61941494544345,156.60724445574743L172.73099827766418,156.58835350609496L172.8425816098849,156.60660601662104L172.95416494210562,156.55066805254077L173.06574827432632,156.5961259543145L173.5120816032092,156.60036428664202L173.958414932092,156.52514953388715L174.18158159653345,156.55875788850778L174.29316492875418,156.63045973036478L174.62791492541632,156.55290930614075L174.73949825763702,156.58724833675723L174.85108158985776,156.6232818361209L175.18583158651987,156.58051551584532L175.520581583182,156.61260640067854L175.63216491540274,156.57084047025543L175.74374824762344,156.62629319830418L175.96691491206488,156.6388967905246L176.07849824428558,156.55932151262058L176.19008157650632,156.6196443206741L176.52483157316843,156.60683248207428L176.74799823760986,156.5976045414326L176.85958156983057,156.594647688371L176.9711649020513,156.592973143654L177.082748234272,156.63390148287812L177.1943315664927,156.60542737672162L177.30591489871344,156.6189373369084L177.52908156315488,156.54178785064818L177.64066489537558,156.5551204664257L177.9754148920377,156.54803341231514L178.53333155314127,156.54883363008545L179.87233153978983,156.62293726056834L179.98391487201056,156.6046013902899L180.09549820423126,156.5239974282398L180.207081536452,156.6368849458172L180.6534148653348,156.63592578862395L180.98816486199695,156.59126194768442L181.09974819421768,156.6080273524958L181.32291485865912,156.6175127351359L181.43449819087982,156.57815224203176L181.54608152310053,156.55986923485509L181.65766485532126,156.50970975117906L181.8808315197627,156.54202101595337L182.1039981842041,156.6361452631607L182.2155815164248,156.58004019608018L182.3271648486455,156.58274712673753L182.55033151308695,156.59904512537702L182.66191484530768,156.61711371675062L182.77349817752838,156.61682894129817L182.99666484196982,156.6276018653752L183.21983150641125,156.5987561765218L183.8893314997355,156.6282294601899L184.11249816417694,156.61662102554658L184.67041482528052,156.6392448139194L184.7819981575012,156.63999938964844L185.22833148638406,156.57515332256406L185.78624814748764,156.62458759954927L185.89783147970837,156.58292469895667L186.3441648085912,156.63397004992498L186.79049813747406,156.63999938964844L187.1252481341362,156.55651839763362L187.45999813079834,156.6267854945755L187.57158146301907,156.54226499662715L187.68316479523975,156.63999938964844L188.0179147919019,156.59038998846694L188.12949812412262,156.63999938964844L188.46424812078476,156.62329374572397L188.6874147852262,156.56288308520803L188.7989981174469,156.56154907521872L188.91058144966763,156.62775632796004L189.69166477521262,156.59256025127203L189.80324810743332,156.61612048797184L189.91483143965402,156.4625318286029L190.02641477187476,156.63347185953918L190.2495814363162,156.6230226426004L190.3611647685369,156.44428837818873L190.4727481007576,156.60907462077174L190.5843314329783,156.54214399595625L190.695914765199,156.6043070561579L190.80749809741974,156.55524263975744L190.91908142964044,156.55199096333274L191.03066476186117,156.5849542461976L191.14224809408188,156.60310459705232L191.47699809074402,156.63999938964844L191.70016475518545,156.63755086918164L192.258081416289,156.55427543359207L192.36966474850973,156.58990672149721L192.48124808073044,156.60808096998446L192.70441474517187,156.58607308786424L193.48549807071686,156.63999938964844L193.7086647351583,156.61041938824354L194.26658139626187,156.59325572877023L194.37816472848257,156.61629977249987L194.82449805736542,156.590424910605L195.04766472180685,156.57211132835138L195.15924805402756,156.6019717208017L195.382414718469,156.61352753322427L195.4939980506897,156.5268094016709L195.71716471513113,156.62587352857753L195.82874804735184,156.5857053018435L196.49824804067612,156.59760366753886L196.60983137289682,156.53202028809469L196.72141470511755,156.55189263161466L197.27933136622113,156.42964344291255L197.3909146984418,156.62295408862462L198.39516468842825,156.61596086978741L198.50674802064896,156.54703588129027L198.8414980173111,156.5826006897836L198.9530813495318,156.63680283878594L199.0646646817525,156.56658953742593L199.28783134619394,156.613592533739L199.51099801063538,156.58597673547814L199.7341646750768,156.58929555233686L200.06891467173895,156.61849360802827L200.18049800395968,156.52385074106843L200.40366466840106,156.6041468497758L200.5152480006218,156.575693433707L200.73841466506323,156.5867672059722L200.96158132950464,156.59475901272282L201.07316466172537,156.61210578654476L201.2963313261668,156.63497651735355L201.4079146583875,156.57197765248674L201.85424798727036,156.63999938964844L201.96583131949106,156.4845259711716L202.1889979839325,156.6121020351505L202.3005813161532,156.63377642504352L202.41216464837393,156.55283450980008L202.52374798059464,156.616516339426L202.74691464503607,156.61031405417185L202.85849797725677,156.598859381878L202.97008130947748,156.55338958170498L203.08166464169818,156.63999938964844L203.52799797058105,156.5728113247018L203.7511646350225,156.56178117243155L203.8627479672432,156.57514343337346L203.97433129946393,156.56976642497918L204.19749796390533,156.59049057587652L204.42066462834674,156.5398142251371L204.64383129278818,156.60058805572226L204.86699795722961,156.43898795126847L204.97858128945032,156.61615971048872L205.09016462167105,156.53127189894508L205.3133312861125,156.59746390802937L205.4249146183332,156.6003610114078L205.5364979505539,156.63959709617484L205.64808128277463,156.63999938964844L205.7596646149953,156.49733704418077L205.87124794721603,156.6202336817043L206.09441461165744,156.580152383122L206.20599794387817,156.60848594877316L206.5407479405403,156.6399993896461L206.65233127276102,156.6302518192814L206.87549793720245,156.58978389834706L206.9870812694232,156.59635242350228L207.3218312660853,156.60864131886302L207.433414598306,156.60535042925792L207.54499793052673,156.63927222399082L207.65658126274744,156.61369490814923L207.76816459496817,156.61693691012215L207.99133125940958,156.5950559423939L208.43766458829245,156.57489258105662L208.66083125273386,156.63999938964844L208.77241458495456,156.62810505637512L208.8839979171753,156.62637351903504L209.21874791383743,156.63999938964844L209.33033124605814,156.6235129623407L209.55349791049957,156.55918216765042L209.99983123938242,156.63999938964844L210.11141457160312,156.58539360560906L210.22299790382385,156.63999938964844L210.33458123604456,156.62303058607037L210.557747900486,156.62723198238294L211.00408122936886,156.59095272001304L211.11566456158957,156.63999938964844L211.33883122603098,156.61184561642935L211.45041455825168,156.6337817454318L211.5619978904724,156.5823086113431L211.67358122269312,156.63999938964844L211.89674788713455,156.59326340334982L212.2314978837967,156.5507883585782L212.34308121601742,156.5755269158701L212.45466454823813,156.59783338208416L212.56624788045883,156.6132668832142L212.67783121267956,156.58209501528225L213.01258120934168,156.63810399209808L213.12416454156238,156.56846989532113L213.57049787044525,156.60564422560918L213.68208120266598,156.58783321814838L213.9052478671074,156.6200984429143L214.01683119932812,156.61227311478737L214.1284145315488,156.63999938964844L214.57474786043167,156.63999938964844L214.9094978570938,156.63276439821297L215.13266452153525,156.5675811379241L215.4674145181974,156.610340233638L215.5789978504181,156.56263272585687L215.6905811826388,156.48011861883282L215.8021645148595,156.59227462993525L215.91374784708023,156.63999938964844L216.13691451152167,156.61517213400978L216.24849784374237,156.57863826139328L216.36008117596307,156.6050184056577L216.69483117262524,156.59516206072922L216.80641450484595,156.6145924100855L217.02958116928735,156.5695252228393L217.14116450150806,156.60983097579884L217.2527478337288,156.62062860884777L217.58749783039093,156.602132797343L217.81066449483237,156.63858855882134L217.92224782705307,156.62273207106642L218.0338311592738,156.63099366076355L218.1454144914945,156.55203197658483L218.9264978170395,156.5906553870064L219.0380811492602,156.63590978451128L219.37283114592236,156.58662485839278L219.9307478070259,156.63060399378813L220.37708113590875,156.62944848966515L220.6002478003502,156.63874168057217L220.82341446479163,156.63857768848425L221.04658112923306,156.6019726021646L221.15816446145374,156.6332325494353L221.26974779367447,156.6003295773755L221.38133112589517,156.63999938964844L221.82766445477804,156.53247989644558L221.93924778699875,156.63790181034048L222.05083111921948,156.6271689518637L222.2739977836609,156.57737538784778L222.38558111588162,156.5970990125802L222.4971644481023,156.63999938964844L222.94349777698517,156.60799697908664L223.1666644414266,156.63999938964844L223.389831105868,156.62906664385193L223.61299777030945,156.62502917450539L223.72458110253018,156.5700610093286L223.9477477669716,156.58531570955984L224.39408109585443,156.59436275046392L224.61724776029587,156.6346766079476L224.72883109251657,156.63999938863546L225.06358108917874,156.60782928111976L225.39833108584085,156.61940101409354L225.84466441472372,156.61286877980314L226.06783107916513,156.63677332900042L226.17941441138586,156.6102474552532L226.514164408048,156.62687044152798L226.96049773693085,156.59034371317946L227.07208106915155,156.60990931999868L227.18366440137228,156.56452492986716L227.295247733593,156.63999938964844L227.62999773025513,156.62946491438584L227.74158106247586,156.57004916321355L227.85316439469656,156.63999938964844L228.07633105913797,156.61009052410526L228.18791439135867,156.63961643457486L228.2994977235794,156.6098834878493L228.52266438802084,156.57985157694793L228.63424772024155,156.5732198065346L228.9689977169037,156.6071468037245L229.08058104912442,156.62342384011814L229.30374771356583,156.63397569895707L229.52691437800723,156.59977707860216L229.63849771022797,156.60742698750028L229.75008104244867,156.5683058647203L230.53116436799368,156.63999938964844L230.6427477002144,156.63999938964844L230.75433103243512,156.5651350496081L230.8659143646558,156.58537777095336L231.5354143579801,156.6121987217823L231.6469976902008,156.61545424856786L231.7585810224215,156.62753071119207L231.87016435464224,156.6060680192553L231.98174768686295,156.5952618302639L232.20491435130438,156.63999938964844L232.5396643479665,156.61601137449648L232.87441434462866,156.5785523583861L233.3207476735115,156.63916607326962L233.43233100573224,156.6325895069616L233.54391433795294,156.56490473005945L233.65549767017367,156.62480843324286L233.76708100239435,156.56606330401428L233.99024766683578,156.61646688226904L234.1018309990565,156.63999938964844L234.54816432793936,156.61549405181324L234.8829143246015,156.63709930303392L234.99449765682218,156.61194212380087L235.32924765348434,156.63999938964844L235.44083098570505,156.6272605585213L235.55241431792578,156.63999938964844L235.66399765014648,156.63483392655908L235.7755809823672,156.63554421310158L235.99874764680862,156.60243690489338L236.11033097902936,156.62134560504552L236.22191431125006,156.61319734704162L236.33349764347076,156.62981110701526L236.44508097569147,156.62643829640808L236.89141430457434,156.57555387213068L237.00299763679504,156.63344194455078L237.11458096901575,156.62190374678224L237.44933096567792,156.62489144101022L237.67249763011932,156.63627183280346L237.78408096234006,156.6218800564194L237.89566429456073,156.63212813448445L238.11883095900217,156.60194661689707L238.23041429122287,156.63128818255862L238.3419976234436,156.63999938964844L238.56516428788504,156.57724494613686L238.67674762010574,156.63999938964844L239.01149761676788,156.61740155830034L239.2346642812093,156.6273401211307L239.45783094565073,156.55941900779078L239.56941427787143,156.59997096723896L239.79258094231287,156.63999938964844L240.127330938975,156.54186836837857L240.35049760341644,156.5924515859473L240.46208093563718,156.62083707545116L240.57366426785788,156.5261813260279L240.7968309322993,156.5750059108825L241.01999759674072,156.59985851504135L241.13158092896143,156.62741399129337L241.24316426118216,156.6188682563556L241.689497590065,156.63722946021588L241.80108092228573,156.62165765793318L242.02424758672717,156.6030132378112L242.24741425116855,156.6109834119573L242.80533091227213,156.63999938964844L243.251664241155,156.61466576674223L243.36324757337567,156.63999938964844L243.4748309055964,156.6132683285L243.5864142378171,156.5944317021734L244.92541422446567,156.58446289010897L245.1485808889071,156.6052690675105L245.37174755334854,156.6328360518973" fill="none"></path></g></g></g></g></g></g><g transform="translate(62, 176)" clip-path="url(#clip_1)"><clipPath id="clip_1"><rect width="267" height="23"></rect></clipPath><g><g><line x1="0" y1="0" x2="0" y2="5" style="visibility: inherit;" fill="rgb(0, 0, 0)" stroke="rgb(204, 204, 204)" stroke-width="1px"></line><line x1="22.31666644414266" y1="0" x2="22.31666644414266" y2="5" style="visibility: inherit;" fill="rgb(0, 0, 0)" stroke="rgb(204, 204, 204)" stroke-width="1px"></line><line x1="44.63333288828532" y1="0" x2="44.63333288828532" y2="5" style="visibility: inherit;" fill="rgb(0, 0, 0)" stroke="rgb(204, 204, 204)" stroke-width="1px"></line><line x1="66.94999933242798" y1="0" x2="66.94999933242798" y2="5" style="visibility: inherit;" fill="rgb(0, 0, 0)" stroke="rgb(204, 204, 204)" stroke-width="1px"></line><line x1="89.26666577657063" y1="0" x2="89.26666577657063" y2="5" style="visibility: inherit;" fill="rgb(0, 0, 0)" stroke="rgb(204, 204, 204)" stroke-width="1px"></line><line x1="111.5833322207133" y1="0" x2="111.5833322207133" y2="5" style="visibility: inherit;" fill="rgb(0, 0, 0)" stroke="rgb(204, 204, 204)" stroke-width="1px"></line><line x1="133.89999866485596" y1="0" x2="133.89999866485596" y2="5" style="visibility: inherit;" fill="rgb(0, 0, 0)" stroke="rgb(204, 204, 204)" stroke-width="1px"></line><line x1="156.21666510899863" y1="0" x2="156.21666510899863" y2="5" style="visibility: inherit;" fill="rgb(0, 0, 0)" stroke="rgb(204, 204, 204)" stroke-width="1px"></line><line x1="178.53333155314127" y1="0" x2="178.53333155314127" y2="5" style="visibility: inherit;" fill="rgb(0, 0, 0)" stroke="rgb(204, 204, 204)" stroke-width="1px"></line><line x1="200.84999799728394" y1="0" x2="200.84999799728394" y2="5" style="visibility: inherit;" fill="rgb(0, 0, 0)" stroke="rgb(204, 204, 204)" stroke-width="1px"></line><line x1="223.1666644414266" y1="0" x2="223.1666644414266" y2="5" style="visibility: inherit;" fill="rgb(0, 0, 0)" stroke="rgb(204, 204, 204)" stroke-width="1px"></line><line x1="245.48333088556925" y1="0" x2="245.48333088556925" y2="5" style="visibility: inherit;" fill="rgb(0, 0, 0)" stroke="rgb(204, 204, 204)" stroke-width="1px"></line><line x1="267.7999973297119" y1="0" x2="267.7999973297119" y2="5" style="visibility: inherit;" fill="rgb(0, 0, 0)" stroke="rgb(204, 204, 204)" stroke-width="1px"></line></g><g transform="translate(0, 8)"><text style="text-anchor: middle; visibility: hidden; font-family: &quot;Helvetica Neue&quot;, sans-serif; font-size: 12px; font-weight: 200;" x="0" y="0" dx="0em" dy="0.95em" fill="rgb(50, 49, 63)" stroke="none" stroke-width="1px">-200</text><text style="text-anchor: middle; visibility: inherit; font-family: &quot;Helvetica Neue&quot;, sans-serif; font-size: 12px; font-weight: 200;" x="22.31666644414266" y="0" dx="0em" dy="0.95em" fill="rgb(50, 49, 63)" stroke="none" stroke-width="1px">0</text><text style="text-anchor: middle; visibility: hidden; font-family: &quot;Helvetica Neue&quot;, sans-serif; font-size: 12px; font-weight: 200;" x="44.63333288828532" y="0" dx="0em" dy="0.95em" fill="rgb(50, 49, 63)" stroke="none" stroke-width="1px">200</text><text style="text-anchor: middle; visibility: inherit; font-family: &quot;Helvetica Neue&quot;, sans-serif; font-size: 12px; font-weight: 200;" x="66.94999933242798" y="0" dx="0em" dy="0.95em" fill="rgb(50, 49, 63)" stroke="none" stroke-width="1px">400</text><text style="text-anchor: middle; visibility: hidden; font-family: &quot;Helvetica Neue&quot;, sans-serif; font-size: 12px; font-weight: 200;" x="89.26666577657063" y="0" dx="0em" dy="0.95em" fill="rgb(50, 49, 63)" stroke="none" stroke-width="1px">600</text><text style="text-anchor: middle; visibility: inherit; font-family: &quot;Helvetica Neue&quot;, sans-serif; font-size: 12px; font-weight: 200;" x="111.5833322207133" y="0" dx="0em" dy="0.95em" fill="rgb(50, 49, 63)" stroke="none" stroke-width="1px">800</text><text style="text-anchor: middle; visibility: hidden; font-family: &quot;Helvetica Neue&quot;, sans-serif; font-size: 12px; font-weight: 200;" x="133.89999866485596" y="0" dx="0em" dy="0.95em" fill="rgb(50, 49, 63)" stroke="none" stroke-width="1px">1k</text><text style="text-anchor: middle; visibility: inherit; font-family: &quot;Helvetica Neue&quot;, sans-serif; font-size: 12px; font-weight: 200;" x="156.21666510899863" y="0" dx="0em" dy="0.95em" fill="rgb(50, 49, 63)" stroke="none" stroke-width="1px">1.2k</text><text style="text-anchor: middle; visibility: hidden; font-family: &quot;Helvetica Neue&quot;, sans-serif; font-size: 12px; font-weight: 200;" x="178.53333155314127" y="0" dx="0em" dy="0.95em" fill="rgb(50, 49, 63)" stroke="none" stroke-width="1px">1.4k</text><text style="text-anchor: middle; visibility: inherit; font-family: &quot;Helvetica Neue&quot;, sans-serif; font-size: 12px; font-weight: 200;" x="200.84999799728394" y="0" dx="0em" dy="0.95em" fill="rgb(50, 49, 63)" stroke="none" stroke-width="1px">1.6k</text><text style="text-anchor: middle; visibility: hidden; font-family: &quot;Helvetica Neue&quot;, sans-serif; font-size: 12px; font-weight: 200;" x="223.1666644414266" y="0" dx="0em" dy="0.95em" fill="rgb(50, 49, 63)" stroke="none" stroke-width="1px">1.8k</text><text style="text-anchor: middle; visibility: inherit; font-family: &quot;Helvetica Neue&quot;, sans-serif; font-size: 12px; font-weight: 200;" x="245.48333088556925" y="0" dx="0em" dy="0.95em" fill="rgb(50, 49, 63)" stroke="none" stroke-width="1px">2k</text><text style="text-anchor: middle; visibility: hidden; font-family: &quot;Helvetica Neue&quot;, sans-serif; font-size: 12px; font-weight: 200;" x="267.7999973297119" y="0" dx="0em" dy="0.95em" fill="rgb(50, 49, 63)" stroke="none" stroke-width="1px">2.2k</text></g><line x1="0" y1="0" x2="267.7999973297119" y2="0" fill="rgb(0, 0, 0)" stroke="rgb(204, 204, 204)" stroke-width="1px"></line></g></g></g></g></svg>