<svg viewBox="0 0 330 200" xmlns="http://www.w3.org/2000/svg"><g><g><g><g><g><line x1="51.76000213623047" y1="176.2199993133545" x2="46.76000213623047" y2="176.2199993133545" style="visibility: inherit;" fill="rgb(0, 0, 0)" stroke="rgb(204, 204, 204)" stroke-width="1px"></line><line x1="51.76000213623047" y1="162.66461475078876" x2="46.76000213623047" y2="162.66461475078876" style="visibility: inherit;" fill="rgb(0, 0, 0)" stroke="rgb(204, 204, 204)" stroke-width="1px"></line><line x1="51.76000213623047" y1="149.10923018822302" x2="46.76000213623047" y2="149.10923018822302" style="visibility: inherit;" fill="rgb(0, 0, 0)" stroke="rgb(204, 204, 204)" stroke-width="1px"></line><line x1="51.76000213623047" y1="135.5538456256573" x2="46.76000213623047" y2="135.5538456256573" style="visibility: inherit;" fill="rgb(0, 0, 0)" stroke="rgb(204, 204, 204)" stroke-width="1px"></line><line x1="51.76000213623047" y1="121.99846106309157" x2="46.76000213623047" y2="121.99846106309157" style="visibility: inherit;" fill="rgb(0, 0, 0)" stroke="rgb(204, 204, 204)" stroke-width="1px"></line><line x1="51.76000213623047" y1="108.44307650052585" x2="46.76000213623047" y2="108.44307650052585" style="visibility: inherit;" fill="rgb(0, 0, 0)" stroke="rgb(204, 204, 204)" stroke-width="1px"></line><line x1="51.76000213623047" y1="94.88769193796011" x2="46.76000213623047" y2="94.88769193796011" style="visibility: inherit;" fill="rgb(0, 0, 0)" stroke="rgb(204, 204, 204)" stroke-width="1px"></line><line x1="51.76000213623047" y1="81.33230737539438" x2="46.76000213623047" y2="81.33230737539438" style="visibility: inherit;" fill="rgb(0, 0, 0)" stroke="rgb(204, 204, 204)" stroke-width="1px"></line><line x1="51.76000213623047" y1="67.77692281282866" x2="46.76000213623047" y2="67.77692281282866" style="visibility: inherit;" fill="rgb(0, 0, 0)" stroke="rgb(204, 204, 204)" stroke-width="1px"></line><line x1="51.76000213623047" y1="54.221538250262924" x2="46.76000213623047" y2="54.221538250262924" style="visibility: inherit;" fill="rgb(0, 0, 0)" stroke="rgb(204, 204, 204)" stroke-width="1px"></line><line x1="51.76000213623047" y1="40.666153687697204" x2="46.76000213623047" y2="40.666153687697204" style="visibility: inherit;" fill="rgb(0, 0, 0)" stroke="rgb(204, 204, 204)" stroke-width="1px"></line><line x1="51.76000213623047" y1="27.11076912513147" x2="46.76000213623047" y2="27.11076912513147" style="visibility: inherit;" fill="rgb(0, 0, 0)" stroke="rgb(204, 204, 204)" stroke-width="1px"></line><line x1="51.76000213623047" y1="13.555384562565735" x2="46.76000213623047" y2="13.555384562565735" style="visibility: inherit;" fill="rgb(0, 0, 0)" stroke="rgb(204, 204, 204)" stroke-width="1px"></line><line x1="51.76000213623047" y1="0" x2="46.76000213623047" y2="0" style="visibility: inherit;" fill="rgb(0, 0, 0)" stroke="rgb(204, 204, 204)" stroke-width="1px"></line></g><g transform="translate(41.76000213623047, 0)"><text style="text-anchor: end; visibility: hidden; font-family: &quot;Helvetica Neue&quot;, sans-serif; font-size: 12px; font-weight: 200;" x="0" y="176.2199993133545" dx="0em" dy="0.3em" fill="rgb(50, 49, 63)" stroke="none" stroke-width="1px">-0.1</text><text style="text-anchor: end; visibility: inherit; font-family: &quot;Helvetica Neue&quot;, sans-serif; font-size: 12px; font-weight: 200;" x="0" y="162.66461475078876" dx="0em" dy="0.3em" fill="rgb(50, 49, 63)" stroke="none" stroke-width="1px">0</text><text style="text-anchor: end; visibility: hidden; font-family: &quot;Helvetica Neue&quot;, sans-serif; font-size: 12px; font-weight: 200;" x="0" y="149.10923018822302" dx="0em" dy="0.3em" fill="rgb(50, 49, 63)" stroke="none" stroke-width="1px">0.1</text><text style="text-anchor: end; visibility: inherit; font-family: &quot;Helvetica Neue&quot;, sans-serif; font-size: 12px; font-weight: 200;" x="0" y="135.5538456256573" dx="0em" dy="0.3em" fill="rgb(50, 49, 63)" stroke="none" stroke-width="1px">0.2</text><text style="text-anchor: end; visibility: hidden; font-family: &quot;Helvetica Neue&quot;, sans-serif; font-size: 12px; font-weight: 200;" x="0" y="121.99846106309157" dx="0em" dy="0.3em" fill="rgb(50, 49, 63)" stroke="none" stroke-width="1px">0.3</text><text style="text-anchor: end; visibility: inherit; font-family: &quot;Helvetica Neue&quot;, sans-serif; font-size: 12px; font-weight: 200;" x="0" y="108.44307650052585" dx="0em" dy="0.3em" fill="rgb(50, 49, 63)" stroke="none" stroke-width="1px">0.4</text><text style="text-anchor: end; visibility: hidden; font-family: &quot;Helvetica Neue&quot;, sans-serif; font-size: 12px; font-weight: 200;" x="0" y="94.88769193796011" dx="0em" dy="0.3em" fill="rgb(50, 49, 63)" stroke="none" stroke-width="1px">0.5</text><text style="text-anchor: end; visibility: inherit; font-family: &quot;Helvetica Neue&quot;, sans-serif; font-size: 12px; font-weight: 200;" x="0" y="81.33230737539438" dx="0em" dy="0.3em" fill="rgb(50, 49, 63)" stroke="none" stroke-width="1px">0.6</text><text style="text-anchor: end; visibility: hidden; font-family: &quot;Helvetica Neue&quot;, sans-serif; font-size: 12px; font-weight: 200;" x="0" y="67.77692281282866" dx="0em" dy="0.3em" fill="rgb(50, 49, 63)" stroke="none" stroke-width="1px">0.7</text><text style="text-anchor: end; visibility: inherit; font-family: &quot;Helvetica Neue&quot;, sans-serif; font-size: 12px; font-weight: 200;" x="0" y="54.221538250262924" dx="0em" dy="0.3em" fill="rgb(50, 49, 63)" stroke="none" stroke-width="1px">0.8</text><text style="text-anchor: end; visibility: hidden; font-family: &quot;Helvetica Neue&quot;, sans-serif; font-size: 12px; font-weight: 200;" x="0" y="40.666153687697204" dx="0em" dy="0.3em" fill="rgb(50, 49, 63)" stroke="none" stroke-width="1px">0.9</text><text style="text-anchor: end; visibility: inherit; font-family: &quot;Helvetica Neue&quot;, sans-serif; font-size: 12px; font-weight: 200;" x="0" y="27.11076912513147" dx="0em" dy="0.3em" fill="rgb(50, 49, 63)" stroke="none" stroke-width="1px">1</text><text style="text-anchor: end; visibility: hidden; font-family: &quot;Helvetica Neue&quot;, sans-serif; font-size: 12px; font-weight: 200;" x="0" y="13.555384562565735" dx="0em" dy="0.3em" fill="rgb(50, 49, 63)" stroke="none" stroke-width="1px">1.1</text><text style="text-anchor: end; visibility: hidden; font-family: &quot;Helvetica Neue&quot;, sans-serif; font-size: 12px; font-weight: 200;" x="0" y="0" dx="0em" dy="0.3em" fill="rgb(50, 49, 63)" stroke="none" stroke-width="1px">1.2</text></g><line x1="51.76000213623047" y1="0" x2="51.76000213623047" y2="176.2199993133545" fill="rgb(0, 0, 0)" stroke="rgb(204, 204, 204)" stroke-width="1px"></line></g></g><g transform="translate(51, 0)" clip-path="url(#clip_0)"><clipPath id="clip_0"><rect width="278" height="176"></rect></clipPath><g><g><g><line x1="0" y1="0" x2="0" y2="176.2199993133545" fill="rgb(0, 0, 0)" stroke="rgb(60, 60, 60)" stroke-width="1px" opacity="0.25"></line><line x1="23.18666648864746" y1="0" x2="23.18666648864746" y2="176.2199993133545" fill="rgb(0, 0, 0)" stroke="rgb(60, 60, 60)" stroke-width="1px" opacity="0.25"></line><line x1="46.37333297729492" y1="0" x2="46.37333297729492" y2="176.2199993133545" fill="rgb(0, 0, 0)" stroke="rgb(60, 60, 60)" stroke-width="1px" opacity="0.25"></line><line x1="69.55999946594238" y1="0" x2="69.55999946594238" y2="176.2199993133545" fill="rgb(0, 0, 0)" stroke="rgb(60, 60, 60)" stroke-width="1px" opacity="0.25"></line><line x1="92.74666595458984" y1="0" x2="92.74666595458984" y2="176.2199993133545" fill="rgb(0, 0, 0)" stroke="rgb(60, 60, 60)" stroke-width="1px" opacity="0.25"></line><line x1="115.9333324432373" y1="0" x2="115.9333324432373" y2="176.2199993133545" fill="rgb(0, 0, 0)" stroke="rgb(60, 60, 60)" stroke-width="1px" opacity="0.25"></line><line x1="139.11999893188477" y1="0" x2="139.11999893188477" y2="176.2199993133545" fill="rgb(0, 0, 0)" stroke="rgb(60, 60, 60)" stroke-width="1px" opacity="0.25"></line><line x1="162.30666542053223" y1="0" x2="162.30666542053223" y2="176.2199993133545" fill="rgb(0, 0, 0)" stroke="rgb(60, 60, 60)" stroke-width="1px" opacity="0.25"></line><line x1="185.4933319091797" y1="0" x2="185.4933319091797" y2="176.2199993133545" fill="rgb(0, 0, 0)" stroke="rgb(60, 60, 60)" stroke-width="1px" opacity="0.25"></line><line x1="208.67999839782715" y1="0" x2="208.67999839782715" y2="176.2199993133545" fill="rgb(0, 0, 0)" stroke="rgb(60, 60, 60)" stroke-width="1px" opacity="0.25"></line><line x1="231.8666648864746" y1="0" x2="231.8666648864746" y2="176.2199993133545" fill="rgb(0, 0, 0)" stroke="rgb(60, 60, 60)" stroke-width="1px" opacity="0.25"></line><line x1="255.05333137512207" y1="0" x2="255.05333137512207" y2="176.2199993133545" fill="rgb(0, 0, 0)" stroke="rgb(60, 60, 60)" stroke-width="1px" opacity="0.25"></line><line x1="278.23999786376953" y1="0" x2="278.23999786376953" y2="176.2199993133545" fill="rgb(0, 0, 0)" stroke="rgb(60, 60, 60)" stroke-width="1px" opacity="0.25"></line></g><g><line x1="0" y1="176.2199993133545" x2="278.23999786376953" y2="176.2199993133545" fill="rgb(0, 0, 0)" stroke="rgb(60, 60, 60)" stroke-width="1px" opacity="0.25"></line><line x1="0" y1="162.66461475078876" x2="278.23999786376953" y2="162.66461475078876" fill="rgb(0, 0, 0)" stroke="rgb(60, 60, 60)" stroke-width="1px" opacity="0.25"></line><line x1="0" y1="149.10923018822302" x2="278.23999786376953" y2="149.10923018822302" fill="rgb(0, 0, 0)" stroke="rgb(60, 60, 60)" stroke-width="1px" opacity="0.25"></line><line x1="0" y1="135.5538456256573" x2="278.23999786376953" y2="135.5538456256573" fill="rgb(0, 0, 0)" stroke="rgb(60, 60, 60)" stroke-width="1px" opacity="0.25"></line><line x1="0" y1="121.99846106309157" x2="278.23999786376953" y2="121.99846106309157" fill="rgb(0, 0, 0)" stroke="rgb(60, 60, 60)" stroke-width="1px" opacity="0.25"></line><line x1="0" y1="108.44307650052585" x2="278.23999786376953" y2="108.44307650052585" fill="rgb(0, 0, 0)" stroke="rgb(60, 60, 60)" stroke-width="1px" opacity="0.25"></line><line x1="0" y1="94.88769193796011" x2="278.23999786376953" y2="94.88769193796011" fill="rgb(0, 0, 0)" stroke="rgb(60, 60, 60)" stroke-width="1px" opacity="0.25"></line><line x1="0" y1="81.33230737539438" x2="278.23999786376953" y2="81.33230737539438" fill="rgb(0, 0, 0)" stroke="rgb(60, 60, 60)" stroke-width="1px" opacity="0.25"></line><line x1="0" y1="67.77692281282866" x2="278.23999786376953" y2="67.77692281282866" fill="rgb(0, 0, 0)" stroke="rgb(60, 60, 60)" stroke-width="1px" opacity="0.25"></line><line x1="0" y1="54.221538250262924" x2="278.23999786376953" y2="54.221538250262924" fill="rgb(0, 0, 0)" stroke="rgb(60, 60, 60)" stroke-width="1px" opacity="0.25"></line><line x1="0" y1="40.666153687697204" x2="278.23999786376953" y2="40.666153687697204" fill="rgb(0, 0, 0)" stroke="rgb(60, 60, 60)" stroke-width="1px" opacity="0.25"></line><line x1="0" y1="27.11076912513147" x2="278.23999786376953" y2="27.11076912513147" fill="rgb(0, 0, 0)" stroke="rgb(60, 60, 60)" stroke-width="1px" opacity="0.25"></line><line x1="0" y1="13.555384562565735" x2="278.23999786376953" y2="13.555384562565735" fill="rgb(0, 0, 0)" stroke="rgb(60, 60, 60)" stroke-width="1px" opacity="0.25"></line><line x1="0" y1="0" x2="278.23999786376953" y2="0" fill="rgb(0, 0, 0)" stroke="rgb(60, 60, 60)" stroke-width="1px" opacity="0.25"></line></g></g></g><g><g><line x1="0" y1="162.66461475078876" x2="278.23999786376953" y2="162.66461475078876" fill="rgb(0, 0, 0)" stroke="rgb(153, 153, 153)" stroke-width="1.5px"></line></g></g><g><g><line x1="23.18666648864746" y1="0" x2="23.18666648864746" y2="176.2199993133545" fill="rgb(0, 0, 0)" stroke="rgb(153, 153, 153)" stroke-width="1.5px"></line></g></g><g><g><g><g><g><path style="fill: none;" stroke="rgb(255, 112, 67)" stroke-width="2px" d="M23.766333150863648,120.64292228364945L23.882266483306886,118.10128757717288L24.345999813079832,106.25761633267658L24.461933145523073,101.03246725422231L24.693799810409544,101.30698086497371L24.809733142852785,102.02610937837974L24.92566647529602,97.41501672262656L25.157533140182498,96.93829457265933L25.27346647262573,93.3710261128066L25.38939980506897,84.16213251187408L25.505333137512206,84.11446117700757L25.969066467285156,81.91237517088813L27.01246645927429,70.82155437458626L27.12839979171753,64.17633981164117L27.360266456604002,58.565135640554914L27.708066453933714,56.28483787559961L27.823999786376955,56.001684316060846L28.055866451263427,56.37409602815494L28.2877331161499,57.13976675559135L28.40366644859314,51.63455127258685L28.635533113479614,52.12714135780482L28.86739977836609,50.79602248638059L28.983333110809326,51.08180067162765L29.33113310813904,48.54217573330348L29.447066440582276,52.44057900506171L29.562999773025513,51.52631590098805L29.67893310546875,48.266678703018144L29.79486643791199,50.6486233382834L30.1426664352417,54.24665267590001L30.258599767684938,52.60996130122706L30.490466432571413,47.29022074566251L30.722333097457884,48.97831750466999L30.838266429901125,49.99117547409051L30.95419976234436,47.345597707287965L31.070133094787597,49.55375845066095L31.41793309211731,46.540932672547825L31.533866424560546,44.19102235680697L31.649799757003784,43.86550591150808L31.76573308944702,50.71899577479215L31.997599754333496,47.24007509345168L32.34539975166321,45.694937553464314L32.92506641387939,45.31006989593166L33.04099974632263,46.70579713007311L33.15693307876587,46.45880050744515L33.27286641120911,47.39503549667549L33.38879974365234,41.450191641165645L33.50473307609558,46.016514773198594L34.08439973831177,43.876371631692194L35.011866397857666,46.38779303656597L35.359666395187375,46.267998051382676L35.475599727630616,45.11169132945659L36.287133054733275,45.502337027119154L36.63493305206298,44.65229471490261L36.866799716949465,41.43119176868652L36.9827330493927,42.20960755984498L37.09866638183594,41.05000920646634L37.56239971160889,40.35425019443949L37.678333044052124,41.02122774989061L37.79426637649536,40.33698132049412L38.142066373825074,39.92643346285627L38.257999706268315,45.644474731448014L38.605799703598024,45.27979220290712L39.06953303337097,45.06098268578262L39.30139969825744,41.67640455121787L39.53326636314392,41.81452036395757L39.64919969558716,42.439604717007114L39.7651330280304,41.730225598025356L39.88106636047363,40.76238002937504L40.34479969024658,39.09724295737334L40.57666635513306,39.182590444983816L40.92446635246277,39.77601703481136L41.040399684906006,40.67428785411366L41.15633301734924,40.67103548028928L41.388199682235715,37.95800649711043L41.504133014678956,40.12569639689883L41.6200663471222,40.88409547136612L41.967866344451906,38.62805735716225L42.19973300933838,38.90107908485717L42.315666341781615,41.23375481495262L42.54753300666809,39.38006782871989L42.663466339111324,37.18342590616879L43.01126633644104,38.034300214261094L43.59093299865723,36.91818020289921L43.706866331100464,37.33293792689361L43.8227996635437,38.66622552395725L44.05466632843017,41.63505754381842L44.170599660873414,39.620849466039374L44.40246632575989,37.32789488856048L44.634332990646364,37.03655187288459L44.7502663230896,39.030608756957605L44.86619965553284,40.769257752807135L44.98213298797607,39.64358445683834L45.21399965286255,37.34153588303985L45.32993298530578,38.12916620038371L46.14146631240845,38.60174439079003L46.6051996421814,38.88529130503383L47.06893297195435,39.05541945358013L47.18486630439758,40.78414417078065L47.30079963684082,39.65251630762245L47.76453296661377,36.804680128104536L48.11233296394348,39.43370057549532L48.460132961273196,41.011112843929794L48.57606629371643,40.33091237691767L48.923866291046146,38.29614750049319L49.03979962348938,38.70193317085571L49.271666288375854,37.860974842261726L49.38759962081909,35.729755248888154L49.50353295326233,36.077668089081214L49.735399618148804,39.53970821748706L49.85133295059204,37.82142500483482L50.08319961547851,36.79045507724345L50.199132947921754,38.34073581416715L50.315066280364995,37.10204156284286L50.662866277694704,39.069902570932555L51.01066627502441,36.99732675149636L51.5903329372406,34.66934829716766L51.82219960212708,33.27256122457038L52.054066267013546,37.314429233374824L52.16999959945679,36.486257614367446L52.74966626167297,35.989354642963065L53.09746625900269,37.31785745633766L53.21339959144592,37.57274427895666L53.32933292388916,38.26789123793378L53.445266256332395,36.516119951697135L53.67713292121887,38.17613473883935L54.14086625099182,38.62992551386341L54.372732915878295,39.44441807613913L54.60459958076477,37.222036054620304L54.836466245651245,35.346391976303266L55.41613290786743,36.932079856341744L55.64799957275391,35.7146331227419L56.11173290252685,34.44195021717621L56.69139956474304,35.8471999354598L56.92326622962952,33.43705734213995L57.03919956207275,36.87091203851082L57.38699955940246,36.7623621628548L57.618866224288944,35.6128025066497L57.73479955673218,38.17635913721668L57.85073288917542,38.08784528748404L58.082599554061886,35.86587751602153L58.19853288650513,35.617126583955496L58.31446621894837,36.0100908901216L58.77819954872131,35.70365460841555L58.89413288116455,36.604222570203405L59.12599954605103,36.602348481870365L59.473799543380736,34.432361335392045L59.937532873153685,35.299231740983544L60.05346620559692,36.3615688497442L60.16939953804016,37.54118598040637L60.2853328704834,35.537881931774876L60.517199535369876,35.4203292334075L60.864999532699585,35.349797614387086L60.980932865142826,34.223048912163335L61.09686619758606,34.631429421640576L61.44466619491577,36.50310232354417L61.56059952735901,38.16832416194757L61.792466192245485,35.91416484069964L62.48806618690491,38.89939140305236L62.71993285179138,40.690527340464L63.06773284912109,39.596346209432454L63.183666181564334,37.313192934596316L63.4155328464508,36.48551583510036L63.53146617889404,37.61555417162003L64.11113284111023,37.20914744272034L64.22706617355347,36.96530340538055L64.45893283843994,38.987859676455145L64.69079950332642,35.86366805214294L64.80673283576965,36.70023063643984L64.92266616821288,35.03330872539499L65.2704661655426,35.11758530957957L65.38639949798583,35.71036612549608L65.73419949531555,36.066034615045965L65.85013282775878,36.27943570877591L66.08199949264527,36.40747636501388L66.1979328250885,35.39987102794515L66.42979948997497,34.253092960298204L66.89353281974792,33.02280802244874L67.00946615219117,34.99571461862331L67.1253994846344,37.80610640440082L67.35726614952088,36.239049051577325L67.47319948196412,33.12995194640473L67.82099947929382,35.0600009729969L67.93693281173707,37.302463351619224L68.0528661441803,36.479078085314114L68.16879947662353,35.44283206012531L68.40066614151,38.074376869302L68.51659947395325,37.484441061329534L68.63253280639648,35.503834980328804L68.74846613883972,35.39990106253984L69.79186613082886,34.25311098105499L69.90779946327208,35.19168152838131L70.13966612815857,33.585961163298634L70.48746612548828,32.622528944248984L71.29899945259093,34.755547171703455L71.41493278503418,36.035358108176155L71.87866611480713,35.71881493924826L71.99459944725037,35.52888903789153L72.1105327796936,34.33050376626602L72.34239944458008,35.23811719950794L72.57426610946655,36.867114990264554L73.0379994392395,37.30229879931281L74.08139943122863,34.85233152585752L74.19733276367188,35.008998989857076L74.31326609611511,35.102999468256826L74.42919942855835,36.78604435151391L74.66106609344482,36.16922668525092L74.77699942588806,35.25692122008738L75.12479942321778,33.08289011291649L75.47259942054748,35.573978738309734L76.28413274765015,37.06863191354563L76.40006608009338,35.25434949165847L76.51599941253663,34.16578003852618L76.63193274497985,35.681497828269784L76.86379940986633,35.50649877130445L76.97973274230957,33.774851509052496L77.09566607475281,35.44694071058558L77.32753273963928,36.45019423150538L77.44346607208251,34.341068785173064L77.55939940452576,34.702241345446396L77.79126606941223,34.376730016204675L78.0231327342987,34.18142321865966L78.13906606674195,33.522024274726874L78.60279939651488,33.126384908367214L79.41433272361755,35.0578607501744L79.76213272094726,38.38560894873723L79.87806605339051,38.213395174396396L80.10993271827698,37.56785204438617L80.34179938316345,35.55388157016279L80.68959938049316,34.34549928562876L81.96486603736876,34.162684780314095L82.31266603469848,34.0529960771253L82.42859936714173,34.52939772061774L82.54453269958496,33.1885908786405L82.77639936447143,35.09518433233836L83.00826602935791,34.61249580833987L83.12419936180115,34.322882693940755L83.35606602668761,34.1491148253013L83.93573268890381,35.67149870033484L84.05166602134705,32.78942173565923L84.74726601600646,33.77125311573812L84.97913268089295,33.27592221297397L85.09506601333618,36.77423096101123L85.21099934577943,36.16213865094929L85.32693267822265,35.79488326491216L85.4428660106659,36.11674489869563L85.55879934310913,34.68321728274847L85.67473267555236,36.53417504020891L85.79066600799561,36.56031996387367L85.90659934043885,34.94936232185529L86.02253267288208,35.06721746745572L86.25439933776856,34.5957156894103L86.60219933509828,38.10832191227877L86.7181326675415,37.50480808711558L86.83406599998474,35.51605519580045L87.06593266487121,32.6961556329386L87.52966599464416,33.17307858870001L87.76153265953064,34.00144722756258L87.99339932441711,32.87182058280737L88.45713265419006,31.651829730548485L88.57306598663331,32.54648304726592L88.68899931907653,33.0832750372964L88.92086598396301,32.32091726864766L89.1527326488495,33.49015043553118L89.38459931373596,39.071627356168506L89.61646597862244,36.99836162263796L89.73239931106568,36.83883191333109L90.08019930839538,34.03203652886273L90.31206597328186,35.601251722471716L90.4279993057251,36.000565973231375L90.54393263816834,34.61350992746992L90.65986597061156,35.950135761636005L90.77579930305481,34.04103370325143L90.89173263549804,33.43779056548195L91.12359930038453,34.70248927903748L91.23953263282776,33.834663910953594L91.81919929504394,33.31396869010322L91.93513262748719,32.45933346033175L92.16699929237366,33.0309852851359L92.2829326248169,31.7473285519456L92.39886595726013,32.06156747469842L92.74666595458984,31.70789273108889L92.97853261947631,31.49568788492317L93.2103992843628,32.995012805296454L93.44226594924926,32.81017802670897L93.67413261413574,32.69927715955646L93.90599927902223,32.63273663926495L94.02193261146545,30.96616449901731L94.1378659439087,31.050650945680218L94.48566594123841,31.643560910939215L94.94939927101136,32.541521755500355L95.06533260345459,31.453650434164302L95.29719926834107,31.88536060402967L95.4131326007843,32.68660157135463L95.64499926567078,34.79399074796683L96.10873259544373,35.51620938852844L96.68839925765991,37.57618840093815L97.49993258476258,35.016665286832705L97.61586591720581,34.02316951563071L97.84773258209229,32.3426390902425L97.96366591453553,32.960968663082326L98.07959924697876,31.705318578713474L98.195532579422,30.951928528092168L98.31146591186524,32.66875719119787L98.42739924430848,34.24106925446705L98.65926590919494,34.10002676161707L98.77519924163818,32.38875343783431L99.23893257141114,31.904204308970407L99.35486590385436,33.24012265972479L99.58673256874084,32.41502584210471L99.81859923362732,31.919967751532653L100.16639923095703,31.62293289718943L100.39826589584351,31.44471198458345L100.51419922828674,32.42221239968691L100.63013256072999,30.839849955270495L100.97793255805969,30.97486221943211L101.09386589050293,32.14030254059611L101.20979922294617,33.92399646410598L101.32573255538941,34.994212818211906L101.44166588783264,37.26299045874825L101.67353255271911,33.74431679070727L101.78946588516236,33.25976041795545L101.90539921760559,35.13788605592731L102.13726588249206,35.180331707899L102.25319921493531,34.66358423367626L102.36913254737854,34.353535749142594L102.48506587982178,38.50522881352384L102.60099921226502,37.742952227862645L102.71693254470824,34.03229385217591L102.94879920959472,32.34811369216965L103.06473254203796,31.337605596165844L103.41253253936767,31.273515603969315L103.87626586914062,29.608417012434188L104.22406586647034,30.23600245373035L104.33999919891357,32.239201546580745L104.45593253135681,30.7300434434068L104.68779919624328,31.451196409575175L104.80373252868652,30.799455226609183L104.91966586112976,32.03505834490235L105.03559919357299,31.691987253211238L105.26746585845947,32.57057756086357L105.38339919090271,32.013298782787984L105.49933252334594,34.9322239402326L105.9630658531189,34.514719573076405L106.42679918289184,33.72200208737695L106.54273251533509,33.788586461362996L106.77459918022156,33.28632222034889L106.89053251266479,31.900530713073408L107.00646584510804,31.06905580870813L107.12239917755127,31.112385731494697L107.2383325099945,32.22281664783364L107.35426584243774,33.973504928448506L107.70206583976746,35.56613276222316L107.81799917221069,34.89506486627073L108.51359916687012,32.86577630062652L108.74546583175659,33.27485098931274L108.86139916419982,32.43586283985749L108.97733249664307,33.559117778257075L109.0932658290863,34.233070741296814L109.32513249397279,32.468579825642166L109.67293249130249,31.95210014165511L109.78886582374572,32.184430428524166L110.13666582107544,33.40825833145706L110.25259915351867,34.684769938622566L110.36853248596191,33.82403230670465L110.60039915084839,33.307589727553875L110.83226581573486,33.53993904546917L111.18006581306457,32.052700808145545L111.29599914550782,31.160357865751422L111.52786581039429,31.16716696572064L111.875665807724,31.71347052296349L111.99159914016724,33.12568238812068L112.10753247261047,35.599654103432215L112.33939913749695,34.91517767099617L112.45533246994019,33.96227694612878L112.57126580238342,34.47496624201983L112.80313246726989,33.15593199148174L112.91906579971314,31.28008171034736L113.03499913215637,30.696786407072494L113.61466579437256,29.804594359701838L114.0783991241455,33.06478642097517L114.19433245658874,32.85204219611623L114.42619912147522,35.435469988229556L114.6580657863617,34.816667201874566L114.88993245124817,33.36095256739455L115.0058657836914,34.65638648018506L115.12179911613464,35.43364682785935L115.23773244857789,35.35778817105819L115.35366578102112,34.770058111571785L115.46959911346435,32.790772247807126L115.70146577835084,31.603200729548377L115.9333324432373,31.975090781260093L116.16519910812377,30.571576984214374L116.51299910545349,30.271683571392686L116.74486577033996,32.2606102171782L116.8607991027832,32.369536473838L116.97673243522644,30.808244399761122L117.44046576499939,32.58254671419925L117.67233242988587,32.02048027478935L117.7882657623291,31.68324041114346L118.02013242721559,32.5653294556229L118.36793242454529,33.09458288231059L118.59979908943177,33.41213493832319L118.715732421875,33.602666171930736L118.83166575431824,31.548122218616783L119.17946575164795,31.942043674701182L119.52726574897765,31.093963585684776L119.6431990814209,30.585115532274926L119.87506574630737,29.73759183482329L120.10693241119384,30.855725444425047L120.33879907608032,31.526605610186124L120.9184657382965,31.92913370964274L121.15033240318299,31.08621760664971L121.26626573562622,31.664900907520916L121.38219906806947,30.927677925376628L121.49813240051269,32.65420682956855L121.8459323978424,31.521261478605226L122.54153239250184,32.46814209609997L122.7733990573883,33.03627046659679L122.88933238983154,31.750499660822157L123.00526572227479,33.69011473624161L123.12119905471802,31.600591357203314L123.23713238716125,31.97352515785309L123.7008657169342,33.82393003446015L123.93273238182068,34.39195809501868L124.04866571426392,31.47948250706378L124.39646571159363,31.3586417505081L124.51239904403687,32.91278512464743L124.6283323764801,32.21862332105826L124.74426570892334,33.42877406697755L124.86019904136657,34.154864514529095L125.09206570625305,32.96387095498727L125.20799903869629,31.164845088450676L125.32393237113953,30.627644433934478L125.43986570358275,30.84753890663052L125.67173236846924,32.063908552915166L126.01953236579895,33.33594520609168L126.25139903068542,33.556952332591834L126.36733236312867,33.68955660849198L126.59919902801514,33.226904308626274L126.71513236045838,32.40709483144559L127.06293235778809,32.99964210780419L127.17886569023132,32.27073751095233L127.4107323551178,32.91782771550825L127.52666568756104,32.76386697283601L128.3381990146637,33.7559202580442L128.45413234710693,32.182289535690586L128.57006567955017,30.153681371466945L128.6859990119934,30.56316106915L128.80193234443664,30.266634022354054L128.91786567687987,31.71536562234928L129.03379900932313,30.957956754273624L129.2656656742096,32.130159261501035L129.38159900665283,32.29126590043168L129.49753233909607,31.845711786528852L129.84533233642577,32.662812280854126L129.96126566886903,32.610857712043554L130.07719900131227,31.495252008090205L130.1931323337555,30.283673720312436L130.42499899864197,31.183374575718574L131.1205989933014,30.09654726088945L131.23653232574463,29.44445087199199L131.35246565818787,31.764270597537774L131.58433232307434,34.24059216367675L132.0480656528473,33.55752564173716L132.395865650177,32.60546763131208L132.74366564750673,32.576450922318344L133.20739897727967,33.64347062773359L133.55519897460937,33.741467585577L133.6711323070526,33.25805089487727L133.78706563949584,33.510215745863206L134.01893230438233,32.57708169378773L134.13486563682557,33.64384909061522L134.2507989692688,34.28390952871172L134.5985989665985,35.21016065697535L134.71453229904176,34.68148160312205L134.94639896392823,33.27984120814307L135.1782656288147,34.607719664634146L135.29419896125793,32.69336917964458L135.5260656261444,33.71362158212932L135.7579322910309,33.24134329280869L135.87386562347413,31.873543356549277L136.1057322883606,31.052863394793633L136.33759895324707,30.560455417740258L136.4535322856903,30.807225496913986L136.56946561813353,30.41307267901243L136.6853989505768,31.261013950938548L137.0331989479065,31.76977871409423L137.14913228034973,30.448389743914845L137.26506561279297,29.655556361807243L137.61286561012267,30.26428606335415L137.72879894256593,29.545094153470842L138.65626560211183,31.82465656642509L139.00406559944153,31.56574618612487L139.11999893188477,32.49483292061177L139.35186559677123,31.96785199863689L139.58373226165773,32.73609640811898L139.69966559410096,33.197043053808216L140.04746559143067,32.93139617581602L140.1633989238739,31.68757508635369L140.3952655887604,32.56793026074905L140.5111989212036,31.46949553731349L140.62713225364683,31.35264956865791L140.7430655860901,31.282541987464583L141.0908655834198,32.32491040141559L142.0183322429657,31.865898487119182L142.13426557540893,32.13270943580258L142.25019890785217,31.20836304234561L142.48206557273863,32.28040303434423L142.71393223762513,31.296979201470606L142.82986557006836,31.249139767152172L142.9457989025116,32.30486906922815L143.17766556739807,32.396091785067966L143.40953223228453,31.366392451904858L143.5254655647278,33.45965041089124L143.64139889717103,33.088960590065824L143.98919889450073,30.697684004092082L144.10513222694397,30.889562648725075L144.2210655593872,30.462474970099095L144.8007322216034,31.290655325590564L145.03259888648986,32.329778404291176L145.1485322189331,32.95325225151154L145.38039888381957,32.785121694438004L145.49633221626283,31.057595532121127L145.7281988811493,30.563294700136765L146.42379887580873,31.35114716361315L146.53973220825193,34.5349329687277L146.77159887313843,32.64969716210069L147.0034655380249,34.22963323700873L147.46719886779786,33.00873218847508L147.69906553268433,31.19176182854335L147.9309321975708,32.8126571714686L148.16279886245727,30.531901952933765L148.39466552734376,30.790093418030068L148.62653219223023,30.945008297087867L148.74246552467346,31.037957224522557L148.8583988571167,31.093726580983343L148.97433218955993,32.753836022932575L149.0902655220032,31.58103899462364L149.55399885177613,31.961793740305268L149.7858655166626,32.73246145311998L149.90179884910583,31.568214252736055L150.59739884376526,32.49631376057849L150.82926550865173,31.968740502616896L151.06113217353823,31.652196547839964L151.17706550598143,30.377840444162302L151.29299883842467,30.155441647361442L151.9885988330841,30.022002369280955L152.33639883041383,31.026371765099668L152.5682654953003,30.544560439923885L152.91606549263,31.339906607485403L153.2638654899597,29.648251614543824L153.37979882240296,29.71768834959036L153.61166548728943,29.21713552521254L153.72759881973266,30.543451658658626L153.8435321521759,29.712593510653505L153.95946548461913,30.298508352661912L154.19133214950563,30.107842392461237L154.30726548194886,29.993442816340803L154.53913214683533,29.382588205262806L154.65506547927856,29.558290304021767L154.7709988117218,29.12149669787138L155.11879880905153,29.943850264992648L155.23473214149473,29.352832674453907L155.46659880638123,28.998222120130663L156.39406546592713,30.954318481015235L156.50999879837036,31.04354333487896L156.6259321308136,30.012648516385667L156.74186546325683,29.93632649069548L157.08966546058656,29.89053327528137L157.20559879302976,29.86305734603286L157.32153212547303,29.8465717884838L157.66933212280273,29.294465588548604L157.785265455246,30.047631599398983L157.9011987876892,30.49953120590922L158.24899878501893,31.855103932482365L159.64019877433776,30.499584874947743L159.98799877166746,29.144058575021234L160.21986543655396,29.415172525876812L160.3357987689972,30.120055761795896L160.56766543388366,31.08520380060864L160.6835987663269,30.57985966122925L161.03139876365663,30.81886804300737L161.37919876098633,29.877843341262746L161.49513209342956,30.93987634828875L161.6110654258728,30.492663189837344L161.72699875831606,33.47762771905644L161.8429320907593,32.5575288777037L161.9588654232025,32.005469572892025L162.07479875564576,31.13201912459931L162.190732088089,31.1501637210294L162.42259875297546,30.618835613481707L162.65446541786193,30.300038748953114L162.77039875030516,30.108760630235963L163.00226541519166,30.536208624411387L163.23413208007813,30.792677420916647L163.4659987449646,30.40434383341406L163.58193207740783,30.713558546318268L163.6978654098511,33.06795006753927L163.81379874229432,31.769507421387658L163.92973207473753,31.532656699102404L164.0456654071808,30.84833140032552L164.50939873695376,29.35330649024789L165.08906539916993,30.082936140418553L165.20499873161316,31.06293202778221L165.43686539649963,32.73535929101189L165.55279872894286,31.569952955471194L166.01653205871582,33.0395718476253L166.13246539115906,32.83691345210627L166.2483987236023,31.08867058672206L166.4802653884888,32.2085875609701L166.8280653858185,31.79610478285184L167.1758653831482,31.548615115980937L167.40773204803466,30.857906450452646L167.63959871292116,29.359051520324186L167.7555320453644,29.001953427652836L167.98739871025086,28.787694572050043L168.1033320426941,29.743568989499863L168.45113204002382,30.859311737230968L168.56706537246703,31.52875738586968L168.68299870491026,30.845991812385904L168.91486536979676,30.436332468295603L169.03079870224,31.8171846899142L169.14673203468323,31.561263060218323L169.3785986995697,30.8654952169951L169.49453203201293,29.36360478024963L169.6104653644562,30.089115114419627L169.72639869689942,32.151069142994345L169.84233202934266,30.677164001254937L169.9582653617859,31.419468744284075L170.5379320240021,30.7804186274345L170.6538653564453,30.39698855732479L170.8857320213318,31.251363477925963L171.34946535110473,30.67955546761965L171.46539868354796,31.42090362410289L171.69726534843446,29.696849824514317L172.1609986782074,29.20463241016691L172.3928653430939,30.535949789631246L172.62473200798033,29.708092389237066L172.85659867286682,30.29580767981207L172.97253200531006,30.106221988751315L173.0884653377533,29.450255708709108L173.20439867019655,29.598890806089543L173.436265335083,28.603642133706302L173.78406533241272,28.00649293027638L173.89999866485596,28.732633139029872L174.13186532974242,28.62610239887624L174.24779866218566,28.562183954784075L174.36373199462892,30.150480716401546L174.59559865951536,31.10345877337201L175.05933198928832,30.59081264488728L175.2911986541748,31.36765793046345L175.40713198661803,30.207117273736372L175.63899865150452,30.0530077451059L175.75493198394776,29.418327162521848L176.10273198127746,31.748596371855683L176.2186653137207,32.062328166644505L176.7983319759369,32.79278210892355L176.91426530838012,33.23105447429097L177.03019864082336,31.86737006543862L177.14613197326662,32.13359238279429L177.37799863815306,31.751107675946372L177.60986530303956,29.894972255620416L177.7257986354828,31.492368562309082L177.84173196792602,30.824158518249504L177.95766530036926,29.88101762640804L178.0735986328125,30.94178091937593L178.18953196525572,30.493805932489636L178.53733196258545,29.140591209546358L178.88513195991516,29.95530697199763L179.11699862480165,31.52856939213541L179.3488652896881,30.845879016145318L179.46479862213135,30.436264790551263L179.5807319545746,30.19049625519483L179.69666528701782,30.043035133980965L179.81259861946106,30.4967733266584L180.27633194923402,30.2268013768591L180.74006527900696,31.14925116964656L180.97193194389342,30.07607321724626L181.0878652763367,29.432166445806075L181.4356652736664,31.75689994182619L181.55159860610962,30.982877345959793L181.66753193855286,29.976248923034206L182.01533193588256,30.456701600090355L182.3631319332123,30.744973206324033L182.47906526565552,31.46015426732552L182.59499859809875,30.804829941259356L182.82686526298522,30.411635345619686L182.94279859542846,30.71793345364165L183.05873192787172,30.9017123184548L183.40653192520142,30.46976477193695L183.6383985900879,30.21059624402625L183.75433192253112,30.59730999268558L183.87026525497438,30.829338241881175L183.9861985874176,30.426340325992783L184.10213191986082,30.184541576459708L184.2180652523041,30.58167719214569L184.44993191719055,31.904391524224252L184.5658652496338,33.78244985428287L184.9136652469635,34.36706998691227L185.4933319091797,33.63341233567846L186.88453189849852,32.10878478227116L187.00046523094178,32.278441212893796L187.11639856338502,34.00687966748458L187.23233189582825,31.79065031594908L187.6960652256012,30.460912705027766L188.0438652229309,30.747499869286486L188.15979855537415,30.919452167841712L188.39166522026062,30.480408681569088L188.50759855270385,30.75919745521128L188.6235318851471,30.926470719396576L188.73946521759032,31.56905277516904L188.97133188247682,31.41238391137125L189.2031985473633,30.233952862281086L189.31913187980652,30.06910909823273L189.43506521224975,29.42798797439795L189.66693187713622,29.58553016550283L189.78286520957948,30.22227034557153L189.89879854202272,29.519884722801237L190.13066520690919,30.182883079950585L190.36253187179565,30.58068209424016L191.05813186645508,29.734931772002398L191.28999853134155,30.3119113094713L191.86966519355775,29.57366930114108L191.98559852600096,28.58850923073726L192.44933185577392,29.08184291930641L193.02899851799012,29.377843132447936L193.14493185043335,30.097658125738576L193.6086651802063,29.44511739090146L194.07239850997925,28.511378084593474L194.42019850730895,30.662212059692905L194.76799850463865,30.326064616679815L194.88393183708192,31.751023978944716L194.99986516952515,29.894922037419406L195.34766516685485,31.492338431388504L195.4635984992981,29.739710708885696L195.81139849662782,30.314778671601232L196.04326516151428,31.744252411897577L196.15919849395752,32.05972179066961L196.27513182640075,31.164570455265846L197.08666515350342,31.711912616690597L197.20259848594665,31.498099816284167L197.31853181838989,32.996459964113086L197.43446515083312,31.18439849392618L197.66633181571962,30.097161611814016L197.78226514816285,31.613682176025264L197.89819848060608,30.896946686479225L198.01413181304932,31.551338355418608L198.13006514549255,32.48618822218802L198.24599847793579,31.962665179582643L198.36193181037902,32.73298431668644L198.47786514282228,31.56852797087592L198.59379847526552,30.86985416338962L198.94159847259522,29.36622014808637L199.17346513748168,29.548469469715883L199.75313179969788,31.284466890766367L199.86906513214112,31.24163238072964L199.98499846458435,30.67371680930188L200.21686512947082,30.33296746644521L201.02839845657348,29.044088129919686L201.26026512145998,29.355190258815895L201.83993178367615,28.99963667074786L201.95586511611938,29.87073424871855L202.41959844589235,30.393392795500944L202.65146511077882,30.164773058164656L202.76739844322205,30.569816081168597L202.99926510810852,30.270627029565247L203.11519844055175,31.175546561270238L203.34706510543822,30.63406531762621L203.46299843788145,31.393609534106815L204.15859843254088,30.764903101328173L204.27453176498412,30.9298941070667L204.39046509742738,30.486673845104093L204.97013175964355,31.305174650593557L205.08606509208678,30.16962730581446L206.12946508407592,30.030513764352747L206.24539841651915,31.031478602142727L206.59319841384888,31.632057504816743L206.70913174629212,30.365757018348376L206.82506507873535,30.148191591873086L207.05693174362182,30.559867201393672L207.2887984085083,31.34909066436731L207.52066507339478,30.738191779484453L207.86846507072448,29.829437583149L207.98439840316775,30.36861479615922L208.21626506805418,29.607691393153857L208.33219840049745,30.235567082162135L208.56406506538391,30.612292495567118L208.79593173027038,30.296112878204326L208.91186506271362,29.564190242380903L209.1437317276001,29.125036660886877L209.25966506004335,30.48819234006322L209.72339838981628,29.137223054090526L209.83933172225952,31.037719041391142L210.07119838714598,31.09358367110451L210.18713171958922,30.58488758352678L210.30306505203248,30.279669930980134L210.4189983844757,30.096539339452164L210.65086504936218,30.52887584994113L210.76679838180542,30.24606289082874L210.88273171424865,31.16080807802834L210.99866504669188,29.540792496869585L211.46239837646485,29.65321287898584L211.69426504135131,29.72066510825556L211.81019837379455,31.38778427389019L211.9261317062378,31.30362281060394L212.15799837112425,31.79534402989347L212.38986503601075,32.63259162687291L212.62173170089721,32.05050722239355L212.85359836578368,35.496767101257234L212.96953169822692,33.22679764161842L213.08546503067018,32.94924892850216L213.31733169555665,31.69828673796536L213.43326502799988,30.94770942364329L213.5491983604431,29.955148169644303L213.66513169288635,28.81739655183918L213.78106502532958,29.76139017737333L213.89699835777284,29.785571487288053L214.12886502265928,30.34229513864267L214.24479835510255,29.59189959864392L214.59259835243225,28.599447409238934L214.70853168487548,29.08840582640744L214.94039834976195,29.381780876708547L215.0563316822052,30.642238869556195L215.4041316795349,30.85629556800356L215.52006501197815,30.98472958707194L215.63599834442138,29.9773602677015L215.75193167686461,29.915153541484955L215.86786500930788,30.420044371160827L216.09973167419432,31.265196966227563L216.56346500396728,31.230070426006364L216.79533166885375,29.5823499056564L216.91126500129698,29.678147324257907L217.02719833374024,29.73562577541881L217.37499833106995,28.685683115303846L217.49093166351318,28.597932384640643L217.72279832839965,29.087496811648464L218.1865316581726,28.296805737041666L218.30246499061585,28.906820823089078L218.41839832305908,28.188400143906023L218.5343316555023,28.841777467207663L218.76619832038878,29.233803861188676L219.22993165016175,29.469019697577295L219.34586498260498,28.525719468598965L219.57773164749145,29.586383927429182L219.69366497993468,29.138352871915828L219.80959831237794,31.038396932086357L219.92553164482118,29.46734580930439L220.15739830970765,29.609144866446712L220.50519830703735,31.86308699421059L220.6211316394806,31.588804442796203L220.73706497192381,30.339805181136057L220.85299830436705,30.674835354951455L220.9689316368103,30.875853459240687L221.31673163414,29.912034591002737L221.43266496658325,29.333743270059983L221.8963982963562,28.98676847749431L222.01233162879944,29.863013332766428L222.2441982936859,29.30433051511818L222.36013162612915,30.053550555340735L222.47606495857238,28.876437983257034L222.93979828834534,28.170170440006814L223.28759828567505,28.83083964486815L223.5194649505615,29.76945603319072L223.86726494789124,30.33262586618426L223.98319828033448,30.670527765980353L224.0991316127777,31.95770186852505L224.21506494522094,31.103358501979073L224.33099827766418,29.50632275124002L224.56286494255068,30.17474589701382L224.6787982749939,30.575799784478136L224.79473160743711,30.81643211695669L225.14253160476684,30.418596651038087L225.25846493721008,29.637680506081153L225.49033160209655,30.253560549918518L225.60626493453978,30.08087371081521L225.72219826698304,29.9772616073532L226.06999826431274,29.915094345276003L226.3018649291992,29.335579122623926L226.41779826164245,28.987869989032703L226.5337315940857,30.4058923369507L226.64966492652894,32.34113547651299L227.46119825363158,31.33341866677185L227.5771315860748,30.18657371552146L227.92493158340454,30.040681610176932L228.50459824562074,29.41093148156449L228.96833157539368,29.575296269802777L229.20019824028014,29.131700277339974L229.4320649051666,28.86554268186231L229.6639315700531,28.70584812457571L229.77986490249634,28.610031390203744L229.89579823493958,30.721404043059096L230.0117315673828,29.277150075888045L230.47546489715577,30.579460389063883L230.591398229599,29.73419874889666L230.70733156204224,29.76925663020208L230.9391982269287,31.41693918705809L231.05513155937194,30.77890089309895L231.17106489181518,29.311648185911935L231.63479822158814,28.97351142700549L231.8666648864746,28.228414506255888L232.09853155136108,28.32357121921183L232.33039821624754,28.922880112391198L232.4463315486908,30.909113276371556L232.67819821357728,31.016420212092754L233.1419315433502,31.080804373525467L233.3737982082367,30.577220004979353L233.4897315406799,29.190639653040165L233.83753153800964,29.443121172688166L234.18533153533934,30.136824949882765L234.6490648651123,30.553047216199474L234.88093152999878,29.71835084517798L234.996864862442,29.75974788797086L235.34466485977174,29.784586113646583L235.80839818954468,29.799489049052028L235.9243315219879,29.266215944889524L236.04026485443117,32.19954450668206L236.15619818687438,30.164034354061812L236.5039981842041,30.02715799330116L236.61993151664734,30.487247042250544L236.73586484909058,29.13665587540291L236.96773151397704,28.868516040700058L237.08366484642028,28.70763213987837L237.19959817886354,29.69553153019686L237.43146484375,30.288271164387936L237.54739817619324,30.643914944902548L237.89519817352294,29.772871482399864L238.0111315059662,29.79246027030399L238.24299817085264,29.804213543046473L238.47486483573914,29.81126550669194L238.59079816818237,29.815496684879236L238.7067315006256,30.36025025719738L239.51826482772827,29.060457804370998L239.6341981601715,28.28058233267521L239.75013149261474,29.981519743136204L239.86606482505798,29.37543436134004L240.5616648197174,30.096212863073845L240.67759815216064,30.528679964114133L240.79353148460388,29.7037304939268L240.9094648170471,29.75097567722017L241.02539814949034,29.77932278719618L241.25726481437684,28.711901322370267L241.60506481170654,30.24031113695324L241.95286480903627,31.699571891108803L242.4165981388092,30.4062656501236L242.53253147125244,29.630281905532513L242.64846480369567,29.70690652418358L242.76439813613894,29.210666429968484L242.88033146858214,29.455137238845168L243.11219813346864,29.059604858765425L243.22813146591187,28.28007056531183L243.6918647956848,28.89677972005117L244.03966479301454,28.724590347489L244.15559812545774,29.163491589357506L244.50339812278747,28.342402603667068L244.6193314552307,28.39196407765857L244.73526478767397,27.879486096647724L244.85119812011717,28.656429038852707L244.9671314525604,28.580379938769937L245.1989981174469,29.07696534412605L245.31493144989014,29.374916587339698L245.43086478233337,29.553687333267902L245.5467981147766,29.118734915419054L245.66273144721984,29.399978330115545L246.1264647769928,29.568724378933382L246.24239810943604,29.127757142818353L246.35833144187927,28.863176801149336L246.706131439209,29.788858326959428L246.93799810409544,29.259837511633975L247.0539314365387,29.48463988784448L247.16986476898194,29.619521313570772L247.4017314338684,30.242665034412255L247.51766476631164,29.532121536105677L247.63359809875487,28.56358057171599L247.86546476364137,29.60910058929943L247.9813980960846,28.60976800363224L248.3291980934143,29.63681304844917L248.56106475830077,29.710825209933574L248.79293142318727,30.297447372229954L248.90886475563047,29.564990938796285L249.14073142051697,28.58330221333037L249.48853141784667,31.247581402340785L249.72039808273314,31.219501087674274L249.8363314151764,30.11822316806291L249.95226474761964,31.08410424436883L250.1841314125061,30.579199927485377L250.41599807739257,30.276257337355304L250.5319314098358,29.552276917871495L250.64786474227907,29.117888666181216L251.111598072052,28.85725571516707L251.22753140449524,29.243090809964315L251.45939806938173,29.474591866842644L251.69126473426817,30.155707366375395L252.27093139648437,28.937732069877825L252.73466472625734,30.3758095854578L252.85059805870054,29.069793401327274L252.9665313911438,28.828398556254655L253.08246472358704,29.225776514616882L254.47366471290587,29.464203289634185L254.70553137779237,29.06504448923883L254.93739804267884,28.825549209001622" fill="none"></path></g></g></g></g><g opacity="0.2"><g><g><g><path style="fill: none;" stroke="rgb(255, 112, 67)" stroke-width="2px" d="M23.766333150863648,120.64292228364945L23.882266483306886,116.57630675328696L24.345999813079832,94.88769193796011L24.461933145523073,94.88769193796011L24.693799810409544,101.66538583517074L24.809733142852785,103.02092299868511L24.92566647529602,90.82108044741703L25.157533140182498,96.24322910147448L25.27346647262573,88.10999804074949L25.38939980506897,70.48799875578514L25.505333137512206,84.04338655020639L25.969066467285156,78.62122981651014L27.01246645927429,54.22153663433515L27.12839979171753,54.22153663433515L27.360266456604002,50.15492514379207L27.708066453933714,52.865999470820796L27.823999786376955,55.577073797849536L28.055866451263427,56.93261904100271L28.2877331161499,58.288156204517065L28.40366644859314,43.37723124658143L28.635533113479614,52.865999470820796L28.86739977836609,48.799387980277714L28.983333110809326,51.51046230730644L29.33113310813904,44.732768410095815L29.447066440582276,58.288156204517065L29.562999773025513,50.15492514379207L29.67893310546875,43.37723124658143L29.79486643791199,54.22153663433515L30.1426664352417,59.64369336803142L30.258599767684938,50.15492514379207L30.490466432571413,39.31061167639953L30.722333097457884,51.51046230730644L30.838266429901125,51.51046230730644L30.95419976234436,43.37723124658143L31.070133094787597,52.865999470820796L31.41793309211731,42.021694083067075L31.533866424560546,40.66615691955272L31.649799757003784,43.37723124658143L31.76573308944702,60.99923053154579L31.997599754333496,42.021694083067075L32.34539975166321,43.37723124658143L32.92506641387939,44.732768410095815L33.04099974632263,48.799387980277714L33.15693307876587,46.08830557361017L33.27286641120911,48.799387980277714L33.38879974365234,32.532925858827724L33.50473307609558,52.865999470820796L34.08439973831177,40.66615691955272L35.011866397857666,50.15492514379207L35.359666395187375,46.08830557361017L35.475599727630616,43.37723124658143L36.287133054733275,46.08830557361017L36.63493305206298,43.37723124658143L36.866799716949465,36.59953734937079L36.9827330493927,43.37723124658143L37.09866638183594,39.31061167639953L37.56239971160889,39.31061167639953L37.678333044052124,42.021694083067075L37.79426637649536,39.31061167639953L38.142066373825074,39.31061167639953L38.257999706268315,54.22153663433515L38.605799703598024,44.732768410095815L39.06953303337097,44.732768410095815L39.30139969825744,36.59953734937079L39.53326636314392,42.021694083067075L39.64919969558716,43.37723124658143L39.7651330280304,40.66615691955272L39.88106636047363,39.31061167639953L40.34479969024658,36.59953734937079L40.57666635513306,39.31061167639953L40.92446635246277,40.66615691955272L41.040399684906006,42.021694083067075L41.15633301734924,40.66615691955272L41.388199682235715,33.88846302234208L41.504133014678956,43.37723124658143L41.6200663471222,42.021694083067075L41.967866344451906,35.244000185856436L42.19973300933838,39.31061167639953L42.315666341781615,44.732768410095815L42.54753300666809,36.59953734937079L42.663466339111324,33.88846302234208L43.01126633644104,39.31061167639953L43.59093299865723,35.244000185856436L43.706866331100464,37.955074512885176L43.8227996635437,40.66615691955272L44.05466632843017,46.08830557361017L44.170599660873414,36.59953734937079L44.40246632575989,33.88846302234208L44.634332990646364,36.59953734937079L44.7502663230896,42.021694083067075L44.86619965553284,43.37723124658143L44.98213298797607,37.955074512885176L45.21399965286255,33.88846302234208L45.32993298530578,39.31061167639953L46.14146631240845,39.31061167639953L46.6051996421814,39.31061167639953L47.06893297195435,39.31061167639953L47.18486630439758,43.37723124658143L47.30079963684082,37.955074512885176L47.76453296661377,32.532925858827724L48.11233296394348,43.37723124658143L48.460132961273196,43.37723124658143L48.57606629371643,39.31061167639953L48.923866291046146,35.244000185856436L49.03979962348938,39.31061167639953L49.271666288375854,36.59953734937079L49.38759962081909,32.532925858827724L49.50353295326233,36.59953734937079L49.735399618148804,44.732768410095815L49.85133295059204,35.244000185856436L50.08319961547851,35.244000185856436L50.199132947921754,40.66615691955272L50.315066280364995,35.244000185856436L50.662866277694704,42.021694083067075L51.01066627502441,33.88846302234208L51.5903329372406,31.177380615674537L51.82219960212708,31.177380615674537L52.054066267013546,43.37723124658143L52.16999959945679,35.244000185856436L52.74966626167297,35.244000185856436L53.09746625900269,39.31061167639953L53.21339959144592,37.955074512885176L53.32933292388916,39.31061167639953L53.445266256332395,33.88846302234208L53.67713292121887,40.66615691955272L54.14086625099182,39.31061167639953L54.372732915878295,40.66615691955272L54.60459958076477,33.88846302234208L54.836466245651245,32.532925858827724L55.41613290786743,39.31061167639953L55.64799957275391,33.88846302234208L56.11173290252685,32.532925858827724L56.69139956474304,37.955074512885176L56.92326622962952,29.82184345216018L57.03919956207275,42.021694083067075L57.38699955940246,36.59953734937079L57.618866224288944,33.88846302234208L57.73479955673218,42.021694083067075L57.85073288917542,37.955074512885176L58.082599554061886,32.532925858827724L58.19853288650513,35.244000185856436L58.31446621894837,36.59953734937079L58.77819954872131,35.244000185856436L58.89413288116455,37.955074512885176L59.12599954605103,36.59953734937079L59.473799543380736,31.177380615674537L59.937532873153685,36.59953734937079L60.05346620559692,37.955074512885176L60.16939953804016,39.31061167639953L60.2853328704834,32.532925858827724L60.517199535369876,35.244000185856436L60.864999532699585,35.244000185856436L60.980932865142826,32.532925858827724L61.09686619758606,35.244000185856436L61.44466619491577,39.31061167639953L61.56059952735901,40.66615691955272L61.792466192245485,32.532925858827724L62.48806618690491,43.37723124658143L62.71993285179138,43.37723124658143L63.06773284912109,37.955074512885176L63.183666181564334,33.88846302234208L63.4155328464508,35.244000185856436L63.53146617889404,39.31061167639953L64.11113284111023,36.59953734937079L64.22706617355347,36.59953734937079L64.45893283843994,42.021694083067075L64.69079950332642,31.177380615674537L64.80673283576965,37.955074512885176L64.92266616821288,32.532925858827724L65.2704661655426,35.244000185856436L65.38639949798583,36.59953734937079L65.73419949531555,36.59953734937079L65.85013282775878,36.59953734937079L66.08199949264527,36.59953734937079L66.1979328250885,33.88846302234208L66.42979948997497,32.532925858827724L66.89353281974792,31.177380615674537L67.00946615219117,37.955074512885176L67.1253994846344,42.021694083067075L67.35726614952088,33.88846302234208L67.47319948196412,28.466306288645825L67.82099947929382,37.955074512885176L67.93693281173707,40.66615691955272L68.0528661441803,35.244000185856436L68.16879947662353,33.88846302234208L68.40066614151,42.021694083067075L68.51659947395325,36.59953734937079L68.63253280639648,32.532925858827724L68.74846613883972,35.244000185856436L69.79186613082886,32.532925858827724L69.90779946327208,36.59953734937079L70.13966612815857,31.177380615674537L70.48746612548828,31.177380615674537L71.29899945259093,37.955074512885176L71.41493278503418,37.955074512885176L71.87866611480713,35.244000185856436L71.99459944725037,35.244000185856436L72.1105327796936,32.532925858827724L72.34239944458008,36.59953734937079L72.57426610946655,39.31061167639953L73.0379994392395,37.955074512885176L74.08139943122863,31.177380615674537L74.19733276367188,35.244000185856436L74.31326609611511,35.244000185856436L74.42919942855835,39.31061167639953L74.66106609344482,35.244000185856436L74.77699942588806,33.88846302234208L75.12479942321778,29.82184345216018L75.47259942054748,39.31061167639953L76.28413274765015,39.31061167639953L76.40006608009338,32.532925858827724L76.51599941253663,32.532925858827724L76.63193274497985,37.955074512885176L76.86379940986633,35.244000185856436L76.97973274230957,31.177380615674537L77.09566607475281,37.955074512885176L77.32753273963928,37.955074512885176L77.44346607208251,31.177380615674537L77.55939940452576,35.244000185856436L77.79126606941223,33.88846302234208L78.0231327342987,33.88846302234208L78.13906606674195,32.532925858827724L78.60279939651488,32.532925858827724L79.41433272361755,37.955074512885176L79.76213272094726,43.37723124658143L79.87806605339051,37.955074512885176L80.10993271827698,36.59953734937079L80.34179938316345,32.532925858827724L80.68959938049316,32.532925858827724L81.96486603736876,33.88846302234208L82.31266603469848,33.88846302234208L82.42859936714173,35.244000185856436L82.54453269958496,31.177380615674537L82.77639936447143,37.955074512885176L83.00826602935791,33.88846302234208L83.12419936180115,33.88846302234208L83.35606602668761,33.88846302234208L83.93573268890381,37.955074512885176L84.05166602134705,28.466306288645825L84.74726601600646,35.244000185856436L84.97913268089295,32.532925858827724L85.09506601333618,42.021694083067075L85.21099934577943,35.244000185856436L85.32693267822265,35.244000185856436L85.4428660106659,36.59953734937079L85.55879934310913,32.532925858827724L85.67473267555236,39.31061167639953L85.79066600799561,36.59953734937079L85.90659934043885,32.532925858827724L86.02253267288208,35.244000185856436L86.25439933776856,33.88846302234208L86.60219933509828,43.37723124658143L86.7181326675415,36.59953734937079L86.83406599998474,32.532925858827724L87.06593266487121,28.466306288645825L87.52966599464416,33.88846302234208L87.76153265953064,35.244000185856436L87.99339932441711,31.177380615674537L88.45713265419006,29.82184345216018L88.57306598663331,33.88846302234208L88.68899931907653,33.88846302234208L88.92086598396301,31.177380615674537L89.1527326488495,35.244000185856436L89.38459931373596,47.44384273712453L89.61646597862244,33.88846302234208L89.73239931106568,36.59953734937079L90.08019930839538,29.82184345216018L90.31206597328186,37.955074512885176L90.4279993057251,36.59953734937079L90.54393263816834,32.532925858827724L90.65986597061156,37.955074512885176L90.77579930305481,31.177380615674537L90.89173263549804,32.532925858827724L91.12359930038453,36.59953734937079L91.23953263282776,32.532925858827724L91.81919929504394,32.532925858827724L91.93513262748719,31.177380615674537L92.16699929237366,33.88846302234208L92.2829326248169,29.82184345216018L92.39886595726013,32.532925858827724L92.74666595458984,31.177380615674537L92.97853261947631,31.177380615674537L93.2103992843628,35.244000185856436L93.44226594924926,32.532925858827724L93.67413261413574,32.532925858827724L93.90599927902223,32.532925858827724L94.02193261146545,28.466306288645825L94.1378659439087,31.177380615674537L94.48566594123841,32.532925858827724L94.94939927101136,33.88846302234208L95.06533260345459,29.82184345216018L95.29719926834107,32.532925858827724L95.4131326007843,33.88846302234208L95.64499926567078,37.955074512885176L96.10873259544373,36.59953734937079L96.68839925765991,40.66615691955272L97.49993258476258,31.177380615674537L97.61586591720581,32.532925858827724L97.84773258209229,29.82184345216018L97.96366591453553,33.88846302234208L98.07959924697876,29.82184345216018L98.195532579422,29.82184345216018L98.31146591186524,35.244000185856436L98.42739924430848,36.59953734937079L98.65926590919494,33.88846302234208L98.77519924163818,29.82184345216018L99.23893257141114,31.177380615674537L99.35486590385436,35.244000185856436L99.58673256874084,31.177380615674537L99.81859923362732,31.177380615674537L100.16639923095703,31.177380615674537L100.39826589584351,31.177380615674537L100.51419922828674,33.88846302234208L100.63013256072999,28.466306288645825L100.97793255805969,31.177380615674537L101.09386589050293,33.88846302234208L101.20979922294617,36.59953734937079L101.32573255538941,36.59953734937079L101.44166588783264,40.66615691955272L101.67353255271911,28.466306288645825L101.78946588516236,32.532925858827724L101.90539921760559,37.955074512885176L102.13726588249206,35.244000185856436L102.25319921493531,33.88846302234208L102.36913254737854,33.88846302234208L102.48506587982178,44.732768410095815L102.60099921226502,36.59953734937079L102.71693254470824,28.466306288645825L102.94879920959472,29.82184345216018L103.06473254203796,29.82184345216018L103.41253253936767,31.177380615674537L103.87626586914062,27.11076912513147L104.22406586647034,31.177380615674537L104.33999919891357,35.244000185856436L104.45593253135681,28.466306288645825L104.68779919624328,32.532925858827724L104.80373252868652,29.82184345216018L104.91966586112976,33.88846302234208L105.03559919357299,31.177380615674537L105.26746585845947,33.88846302234208L105.38339919090271,31.177380615674537L105.49933252334594,39.31061167639953L105.9630658531189,33.88846302234208L106.42679918289184,32.532925858827724L106.54273251533509,33.88846302234208L106.77459918022156,32.532925858827724L106.89053251266479,29.82184345216018L107.00646584510804,29.82184345216018L107.12239917755127,31.177380615674537L107.2383325099945,33.88846302234208L107.35426584243774,36.59953734937079L107.70206583976746,37.955074512885176L107.81799917221069,33.88846302234208L108.51359916687012,29.82184345216018L108.74546583175659,33.88846302234208L108.86139916419982,31.177380615674537L108.97733249664307,35.244000185856436L109.0932658290863,35.244000185856436L109.32513249397279,29.82184345216018L109.67293249130249,31.177380615674537L109.78886582374572,32.532925858827724L110.13666582107544,35.244000185856436L110.25259915351867,36.59953734937079L110.36853248596191,32.532925858827724L110.60039915084839,32.532925858827724L110.83226581573486,33.88846302234208L111.18006581306457,29.82184345216018L111.29599914550782,29.82184345216018L111.52786581039429,31.177380615674537L111.875665807724,32.532925858827724L111.99159914016724,35.244000185856436L112.10753247261047,39.31061167639953L112.33939913749695,33.88846302234208L112.45533246994019,32.532925858827724L112.57126580238342,35.244000185856436L112.80313246726989,31.177380615674537L112.91906579971314,28.466306288645825L113.03499913215637,29.82184345216018L113.61466579437256,28.466306288645825L114.0783991241455,37.955074512885176L114.19433245658874,32.532925858827724L114.42619912147522,39.31061167639953L114.6580657863617,33.88846302234208L114.88993245124817,31.177380615674537L115.0058657836914,36.59953734937079L115.12179911613464,36.59953734937079L115.23773244857789,35.244000185856436L115.35366578102112,33.88846302234208L115.46959911346435,29.82184345216018L115.70146577835084,29.82184345216018L115.9333324432373,32.532925858827724L116.16519910812377,28.466306288645825L116.51299910545349,29.82184345216018L116.74486577033996,35.244000185856436L116.8607991027832,32.532925858827724L116.97673243522644,28.466306288645825L117.44046576499939,35.244000185856436L117.67233242988587,31.177380615674537L117.7882657623291,31.177380615674537L118.02013242721559,33.88846302234208L118.36793242454529,33.88846302234208L118.59979908943177,33.88846302234208L118.715732421875,33.88846302234208L118.83166575431824,28.466306288645825L119.17946575164795,32.532925858827724L119.52726574897765,29.82184345216018L119.6431990814209,29.82184345216018L119.87506574630737,28.466306288645825L120.10693241119384,32.532925858827724L120.33879907608032,32.532925858827724L120.9184657382965,32.532925858827724L121.15033240318299,29.82184345216018L121.26626573562622,32.532925858827724L121.38219906806947,29.82184345216018L121.49813240051269,35.244000185856436L121.8459323978424,29.82184345216018L122.54153239250184,33.88846302234208L122.7733990573883,33.88846302234208L122.88933238983154,29.82184345216018L123.00526572227479,36.59953734937079L123.12119905471802,28.466306288645825L123.23713238716125,32.532925858827724L123.7008657169342,36.59953734937079L123.93273238182068,35.244000185856436L124.04866571426392,27.11076912513147L124.39646571159363,31.177380615674537L124.51239904403687,35.244000185856436L124.6283323764801,31.177380615674537L124.74426570892334,35.244000185856436L124.86019904136657,35.244000185856436L125.09206570625305,31.177380615674537L125.20799903869629,28.466306288645825L125.32393237113953,29.82184345216018L125.43986570358275,31.177380615674537L125.67173236846924,33.88846302234208L126.01953236579895,35.244000185856436L126.25139903068542,33.88846302234208L126.36733236312867,33.88846302234208L126.59919902801514,32.532925858827724L126.71513236045838,31.177380615674537L127.06293235778809,33.88846302234208L127.17886569023132,31.177380615674537L127.4107323551178,33.88846302234208L127.52666568756104,32.532925858827724L128.3381990146637,35.244000185856436L128.45413234710693,29.82184345216018L128.57006567955017,27.11076912513147L128.6859990119934,31.177380615674537L128.80193234443664,29.82184345216018L128.91786567687987,33.88846302234208L129.03379900932313,29.82184345216018L129.2656656742096,33.88846302234208L129.38159900665283,32.532925858827724L129.49753233909607,31.177380615674537L129.84533233642577,33.88846302234208L129.96126566886903,32.532925858827724L130.07719900131227,29.82184345216018L130.1931323337555,28.466306288645825L130.42499899864197,32.532925858827724L131.1205989933014,28.466306288645825L131.23653232574463,28.466306288645825L131.35246565818787,35.244000185856436L131.58433232307434,37.955074512885176L132.0480656528473,32.532925858827724L132.395865650177,31.177380615674537L132.74366564750673,32.532925858827724L133.20739897727967,35.244000185856436L133.55519897460937,33.88846302234208L133.6711323070526,32.532925858827724L133.78706563949584,33.88846302234208L134.01893230438233,31.177380615674537L134.13486563682557,35.244000185856436L134.2507989692688,35.244000185856436L134.5985989665985,36.59953734937079L134.71453229904176,33.88846302234208L134.94639896392823,31.177380615674537L135.1782656288147,36.59953734937079L135.29419896125793,29.82184345216018L135.5260656261444,35.244000185856436L135.7579322910309,32.532925858827724L135.87386562347413,29.82184345216018L136.1057322883606,29.82184345216018L136.33759895324707,29.82184345216018L136.4535322856903,31.177380615674537L136.56946561813353,29.82184345216018L136.6853989505768,32.532925858827724L137.0331989479065,32.532925858827724L137.14913228034973,28.466306288645825L137.26506561279297,28.466306288645825L137.61286561012267,31.177380615674537L137.72879894256593,28.466306288645825L138.65626560211183,35.244000185856436L139.00406559944153,31.177380615674537L139.11999893188477,33.88846302234208L139.35186559677123,31.177380615674537L139.58373226165773,33.88846302234208L139.69966559410096,33.88846302234208L140.04746559143067,32.532925858827724L140.1633989238739,29.82184345216018L140.3952655887604,33.88846302234208L140.5111989212036,29.82184345216018L140.62713225364683,31.177380615674537L140.7430655860901,31.177380615674537L141.0908655834198,33.88846302234208L142.0183322429657,31.177380615674537L142.13426557540893,32.532925858827724L142.25019890785217,29.82184345216018L142.48206557273863,33.88846302234208L142.71393223762513,29.82184345216018L142.82986557006836,31.177380615674537L142.9457989025116,33.88846302234208L143.17766556739807,32.532925858827724L143.40953223228453,29.82184345216018L143.5254655647278,36.59953734937079L143.64139889717103,32.532925858827724L143.98919889450073,27.11076912513147L144.10513222694397,31.177380615674537L144.2210655593872,29.82184345216018L144.8007322216034,32.532925858827724L145.03259888648986,33.88846302234208L145.1485322189331,33.88846302234208L145.38039888381957,32.532925858827724L145.49633221626283,28.466306288645825L145.7281988811493,29.82184345216018L146.42379887580873,32.532925858827724L146.53973220825193,39.31061167639953L146.77159887313843,29.82184345216018L147.0034655380249,36.59953734937079L147.46719886779786,31.177380615674537L147.69906553268433,28.466306288645825L147.9309321975708,35.244000185856436L148.16279886245727,27.11076912513147L148.39466552734376,31.177380615674537L148.62653219223023,31.177380615674537L148.74246552467346,31.177380615674537L148.8583988571167,31.177380615674537L148.97433218955993,35.244000185856436L149.0902655220032,29.82184345216018L149.55399885177613,32.532925858827724L149.7858655166626,33.88846302234208L149.90179884910583,29.82184345216018L150.59739884376526,33.88846302234208L150.82926550865173,31.177380615674537L151.06113217353823,31.177380615674537L151.17706550598143,28.466306288645825L151.29299883842467,29.82184345216018L151.9885988330841,29.82184345216018L152.33639883041383,32.532925858827724L152.5682654953003,29.82184345216018L152.91606549263,32.532925858827724L153.2638654899597,27.11076912513147L153.37979882240296,29.82184345216018L153.61166548728943,28.466306288645825L153.72759881973266,32.532925858827724L153.8435321521759,28.466306288645825L153.95946548461913,31.177380615674537L154.19133214950563,29.82184345216018L154.30726548194886,29.82184345216018L154.53913214683533,28.466306288645825L154.65506547927856,29.82184345216018L154.7709988117218,28.466306288645825L155.11879880905153,31.177380615674537L155.23473214149473,28.466306288645825L155.46659880638123,28.466306288645825L156.39406546592713,33.88846302234208L156.50999879837036,31.177380615674537L156.6259321308136,28.466306288645825L156.74186546325683,29.82184345216018L157.08966546058656,29.82184345216018L157.20559879302976,29.82184345216018L157.32153212547303,29.82184345216018L157.66933212280273,28.466306288645825L157.785265455246,31.177380615674537L157.9011987876892,31.177380615674537L158.24899878501893,33.88846302234208L159.64019877433776,28.466306288645825L159.98799877166746,27.11076912513147L160.21986543655396,29.82184345216018L160.3357987689972,31.177380615674537L160.56766543388366,32.532925858827724L160.6835987663269,29.82184345216018L161.03139876365663,31.177380615674537L161.37919876098633,28.466306288645825L161.49513209342956,32.532925858827724L161.6110654258728,29.82184345216018L161.72699875831606,37.955074512885176L161.8429320907593,31.177380615674537L161.9588654232025,31.177380615674537L162.07479875564576,29.82184345216018L162.190732088089,31.177380615674537L162.42259875297546,29.82184345216018L162.65446541786193,29.82184345216018L162.77039875030516,29.82184345216018L163.00226541519166,31.177380615674537L163.23413208007813,31.177380615674537L163.4659987449646,29.82184345216018L163.58193207740783,31.177380615674537L163.6978654098511,36.59953734937079L163.81379874229432,29.82184345216018L163.92973207473753,31.177380615674537L164.0456654071808,29.82184345216018L164.50939873695376,27.11076912513147L165.08906539916993,31.177380615674537L165.20499873161316,32.532925858827724L165.43686539649963,35.244000185856436L165.55279872894286,29.82184345216018L166.01653205871582,35.244000185856436L166.13246539115906,32.532925858827724L166.2483987236023,28.466306288645825L166.4802653884888,33.88846302234208L166.8280653858185,31.177380615674537L167.1758653831482,31.177380615674537L167.40773204803466,29.82184345216018L167.63959871292116,27.11076912513147L167.7555320453644,28.466306288645825L167.98739871025086,28.466306288645825L168.1033320426941,31.177380615674537L168.45113204002382,32.532925858827724L168.56706537246703,32.532925858827724L168.68299870491026,29.82184345216018L168.91486536979676,29.82184345216018L169.03079870224,33.88846302234208L169.14673203468323,31.177380615674537L169.3785986995697,29.82184345216018L169.49453203201293,27.11076912513147L169.6104653644562,31.177380615674537L169.72639869689942,35.244000185856436L169.84233202934266,28.466306288645825L169.9582653617859,32.532925858827724L170.5379320240021,29.82184345216018L170.6538653564453,29.82184345216018L170.8857320213318,32.532925858827724L171.34946535110473,29.82184345216018L171.46539868354796,32.532925858827724L171.69726534843446,27.11076912513147L172.1609986782074,28.466306288645825L172.3928653430939,32.532925858827724L172.62473200798033,28.466306288645825L172.85659867286682,31.177380615674537L172.97253200531006,29.82184345216018L173.0884653377533,28.466306288645825L173.20439867019655,29.82184345216018L173.436265335083,27.11076912513147L173.78406533241272,27.11076912513147L173.89999866485596,29.82184345216018L174.13186532974242,28.466306288645825L174.24779866218566,28.466306288645825L174.36373199462892,32.532925858827724L174.59559865951536,32.532925858827724L175.05933198928832,29.82184345216018L175.2911986541748,32.532925858827724L175.40713198661803,28.466306288645825L175.63899865150452,29.82184345216018L175.75493198394776,28.466306288645825L176.10273198127746,35.244000185856436L176.2186653137207,32.532925858827724L176.7983319759369,33.88846302234208L176.91426530838012,33.88846302234208L177.03019864082336,29.82184345216018L177.14613197326662,32.532925858827724L177.37799863815306,31.177380615674537L177.60986530303956,27.11076912513147L177.7257986354828,33.88846302234208L177.84173196792602,29.82184345216018L177.95766530036926,28.466306288645825L178.0735986328125,32.532925858827724L178.18953196525572,29.82184345216018L178.53733196258545,27.11076912513147L178.88513195991516,31.177380615674537L179.11699862480165,33.88846302234208L179.3488652896881,29.82184345216018L179.46479862213135,29.82184345216018L179.5807319545746,29.82184345216018L179.69666528701782,29.82184345216018L179.81259861946106,31.177380615674537L180.27633194923402,29.82184345216018L180.74006527900696,32.532925858827724L180.97193194389342,28.466306288645825L181.0878652763367,28.466306288645825L181.4356652736664,35.244000185856436L181.55159860610962,29.82184345216018L181.66753193855286,28.466306288645825L182.01533193588256,31.177380615674537L182.3631319332123,31.177380615674537L182.47906526565552,32.532925858827724L182.59499859809875,29.82184345216018L182.82686526298522,29.82184345216018L182.94279859542846,31.177380615674537L183.05873192787172,31.177380615674537L183.40653192520142,29.82184345216018L183.6383985900879,29.82184345216018L183.75433192253112,31.177380615674537L183.87026525497438,31.177380615674537L183.9861985874176,29.82184345216018L184.10213191986082,29.82184345216018L184.2180652523041,31.177380615674537L184.44993191719055,33.88846302234208L184.5658652496338,36.59953734937079L184.9136652469635,35.244000185856436L185.4933319091797,32.532925858827724L186.88453189849852,29.82184345216018L187.00046523094178,32.532925858827724L187.11639856338502,36.59953734937079L187.23233189582825,28.466306288645825L187.6960652256012,28.466306288645825L188.0438652229309,31.177380615674537L188.15979855537415,31.177380615674537L188.39166522026062,29.82184345216018L188.50759855270385,31.177380615674537L188.6235318851471,31.177380615674537L188.73946521759032,32.532925858827724L188.97133188247682,31.177380615674537L189.2031985473633,28.466306288645825L189.31913187980652,29.82184345216018L189.43506521224975,28.466306288645825L189.66693187713622,29.82184345216018L189.78286520957948,31.177380615674537L189.89879854202272,28.466306288645825L190.13066520690919,31.177380615674537L190.36253187179565,31.177380615674537L191.05813186645508,28.466306288645825L191.28999853134155,31.177380615674537L191.86966519355775,28.466306288645825L191.98559852600096,27.11076912513147L192.44933185577392,29.82184345216018L193.02899851799012,29.82184345216018L193.14493185043335,31.177380615674537L193.6086651802063,28.466306288645825L194.07239850997925,27.11076912513147L194.42019850730895,33.88846302234208L194.76799850463865,29.82184345216018L194.88393183708192,33.88846302234208L194.99986516952515,27.11076912513147L195.34766516685485,33.88846302234208L195.4635984992981,27.11076912513147L195.81139849662782,31.177380615674537L196.04326516151428,33.88846302234208L196.15919849395752,32.532925858827724L196.27513182640075,29.82184345216018L197.08666515350342,32.532925858827724L197.20259848594665,31.177380615674537L197.31853181838989,35.244000185856436L197.43446515083312,28.466306288645825L197.66633181571962,28.466306288645825L197.78226514816285,33.88846302234208L197.89819848060608,29.82184345216018L198.01413181304932,32.532925858827724L198.13006514549255,33.88846302234208L198.24599847793579,31.177380615674537L198.36193181037902,33.88846302234208L198.47786514282228,29.82184345216018L198.59379847526552,29.82184345216018L198.94159847259522,27.11076912513147L199.17346513748168,29.82184345216018L199.75313179969788,33.88846302234208L199.86906513214112,31.177380615674537L199.98499846458435,29.82184345216018L200.21686512947082,29.82184345216018L201.02839845657348,27.11076912513147L201.26026512145998,29.82184345216018L201.83993178367615,28.466306288645825L201.95586511611938,31.177380615674537L202.41959844589235,31.177380615674537L202.65146511077882,29.82184345216018L202.76739844322205,31.177380615674537L202.99926510810852,29.82184345216018L203.11519844055175,32.532925858827724L203.34706510543822,29.82184345216018L203.46299843788145,32.532925858827724L204.15859843254088,29.82184345216018L204.27453176498412,31.177380615674537L204.39046509742738,29.82184345216018L204.97013175964355,32.532925858827724L205.08606509208678,28.466306288645825L206.12946508407592,29.82184345216018L206.24539841651915,32.532925858827724L206.59319841384888,32.532925858827724L206.70913174629212,28.466306288645825L206.82506507873535,29.82184345216018L207.05693174362182,31.177380615674537L207.2887984085083,32.532925858827724L207.52066507339478,29.82184345216018L207.86846507072448,28.466306288645825L207.98439840316775,31.177380615674537L208.21626506805418,28.466306288645825L208.33219840049745,31.177380615674537L208.56406506538391,31.177380615674537L208.79593173027038,29.82184345216018L208.91186506271362,28.466306288645825L209.1437317276001,28.466306288645825L209.25966506004335,32.532925858827724L209.72339838981628,27.11076912513147L209.83933172225952,33.88846302234208L210.07119838714598,31.177380615674537L210.18713171958922,29.82184345216018L210.30306505203248,29.82184345216018L210.4189983844757,29.82184345216018L210.65086504936218,31.177380615674537L210.76679838180542,29.82184345216018L210.88273171424865,32.532925858827724L210.99866504669188,27.11076912513147L211.46239837646485,29.82184345216018L211.69426504135131,29.82184345216018L211.81019837379455,33.88846302234208L211.9261317062378,31.177380615674537L212.15799837112425,32.532925858827724L212.38986503601075,33.88846302234208L212.62173170089721,31.177380615674537L212.85359836578368,40.66615691955272L212.96953169822692,29.82184345216018L213.08546503067018,32.532925858827724L213.31733169555665,29.82184345216018L213.43326502799988,29.82184345216018L213.5491983604431,28.466306288645825L213.66513169288635,27.11076912513147L213.78106502532958,31.177380615674537L213.89699835777284,29.82184345216018L214.12886502265928,31.177380615674537L214.24479835510255,28.466306288645825L214.59259835243225,27.11076912513147L214.70853168487548,29.82184345216018L214.94039834976195,29.82184345216018L215.0563316822052,32.532925858827724L215.4041316795349,31.177380615674537L215.52006501197815,31.177380615674537L215.63599834442138,28.466306288645825L215.75193167686461,29.82184345216018L215.86786500930788,31.177380615674537L216.09973167419432,32.532925858827724L216.56346500396728,31.177380615674537L216.79533166885375,27.11076912513147L216.91126500129698,29.82184345216018L217.02719833374024,29.82184345216018L217.37499833106995,27.11076912513147L217.49093166351318,28.466306288645825L217.72279832839965,29.82184345216018L218.1865316581726,27.11076912513147L218.30246499061585,29.82184345216018L218.41839832305908,27.11076912513147L218.5343316555023,29.82184345216018L218.76619832038878,29.82184345216018L219.22993165016175,29.82184345216018L219.34586498260498,27.11076912513147L219.57773164749145,31.177380615674537L219.69366497993468,28.466306288645825L219.80959831237794,33.88846302234208L219.92553164482118,27.11076912513147L220.15739830970765,29.82184345216018L220.50519830703735,35.244000185856436L220.6211316394806,31.177380615674537L220.73706497192381,28.466306288645825L220.85299830436705,31.177380615674537L220.9689316368103,31.177380615674537L221.31673163414,28.466306288645825L221.43266496658325,28.466306288645825L221.8963982963562,28.466306288645825L222.01233162879944,31.177380615674537L222.2441982936859,28.466306288645825L222.36013162612915,31.177380615674537L222.47606495857238,27.11076912513147L222.93979828834534,27.11076912513147L223.28759828567505,29.82184345216018L223.5194649505615,31.177380615674537L223.86726494789124,31.177380615674537L223.98319828033448,31.177380615674537L224.0991316127777,33.88846302234208L224.21506494522094,29.82184345216018L224.33099827766418,27.11076912513147L224.56286494255068,31.177380615674537L224.6787982749939,31.177380615674537L224.79473160743711,31.177380615674537L225.14253160476684,29.82184345216018L225.25846493721008,28.466306288645825L225.49033160209655,31.177380615674537L225.60626493453978,29.82184345216018L225.72219826698304,29.82184345216018L226.06999826431274,29.82184345216018L226.3018649291992,28.466306288645825L226.41779826164245,28.466306288645825L226.5337315940857,32.532925858827724L226.64966492652894,35.244000185856436L227.46119825363158,29.82184345216018L227.5771315860748,28.466306288645825L227.92493158340454,29.82184345216018L228.50459824562074,28.466306288645825L228.96833157539368,29.82184345216018L229.20019824028014,28.466306288645825L229.4320649051666,28.466306288645825L229.6639315700531,28.466306288645825L229.77986490249634,28.466306288645825L229.89579823493958,33.88846302234208L230.0117315673828,27.11076912513147L230.47546489715577,32.532925858827724L230.591398229599,28.466306288645825L230.70733156204224,29.82184345216018L230.9391982269287,33.88846302234208L231.05513155937194,29.82184345216018L231.17106489181518,27.11076912513147L231.63479822158814,28.466306288645825L231.8666648864746,27.11076912513147L232.09853155136108,28.466306288645825L232.33039821624754,29.82184345216018L232.4463315486908,33.88846302234208L232.67819821357728,31.177380615674537L233.1419315433502,31.177380615674537L233.3737982082367,29.82184345216018L233.4897315406799,27.11076912513147L233.83753153800964,29.82184345216018L234.18533153533934,31.177380615674537L234.6490648651123,31.177380615674537L234.88093152999878,28.466306288645825L234.996864862442,29.82184345216018L235.34466485977174,29.82184345216018L235.80839818954468,29.82184345216018L235.9243315219879,28.466306288645825L236.04026485443117,36.59953734937079L236.15619818687438,27.11076912513147L236.5039981842041,29.82184345216018L236.61993151664734,31.177380615674537L236.73586484909058,27.11076912513147L236.96773151397704,28.466306288645825L237.08366484642028,28.466306288645825L237.19959817886354,31.177380615674537L237.43146484375,31.177380615674537L237.54739817619324,31.177380615674537L237.89519817352294,28.466306288645825L238.0111315059662,29.82184345216018L238.24299817085264,29.82184345216018L238.47486483573914,29.82184345216018L238.59079816818237,29.82184345216018L238.7067315006256,31.177380615674537L239.51826482772827,27.11076912513147L239.6341981601715,27.11076912513147L239.75013149261474,32.532925858827724L239.86606482505798,28.466306288645825L240.5616648197174,31.177380615674537L240.67759815216064,31.177380615674537L240.79353148460388,28.466306288645825L240.9094648170471,29.82184345216018L241.02539814949034,29.82184345216018L241.25726481437684,27.11076912513147L241.60506481170654,32.532925858827724L241.95286480903627,33.88846302234208L242.4165981388092,28.466306288645825L242.53253147125244,28.466306288645825L242.64846480369567,29.82184345216018L242.76439813613894,28.466306288645825L242.88033146858214,29.82184345216018L243.11219813346864,28.466306288645825L243.22813146591187,27.11076912513147L243.6918647956848,29.82184345216018L244.03966479301454,28.466306288645825L244.15559812545774,29.82184345216018L244.50339812278747,27.11076912513147L244.6193314552307,28.466306288645825L244.73526478767397,27.11076912513147L244.85119812011717,29.82184345216018L244.9671314525604,28.466306288645825L245.1989981174469,29.82184345216018L245.31493144989014,29.82184345216018L245.43086478233337,29.82184345216018L245.5467981147766,28.466306288645825L245.66273144721984,29.82184345216018L246.1264647769928,29.82184345216018L246.24239810943604,28.466306288645825L246.35833144187927,28.466306288645825L246.706131439209,31.177380615674537L246.93799810409544,28.466306288645825L247.0539314365387,29.82184345216018L247.16986476898194,29.82184345216018L247.4017314338684,31.177380615674537L247.51766476631164,28.466306288645825L247.63359809875487,27.11076912513147L247.86546476364137,31.177380615674537L247.9813980960846,27.11076912513147L248.3291980934143,31.177380615674537L248.56106475830077,29.82184345216018L248.79293142318727,31.177380615674537L248.90886475563047,28.466306288645825L249.14073142051697,27.11076912513147L249.48853141784667,35.244000185856436L249.72039808273314,31.177380615674537L249.8363314151764,28.466306288645825L249.95226474761964,32.532925858827724L250.1841314125061,29.82184345216018L250.41599807739257,29.82184345216018L250.5319314098358,28.466306288645825L250.64786474227907,28.466306288645825L251.111598072052,28.466306288645825L251.22753140449524,29.82184345216018L251.45939806938173,29.82184345216018L251.69126473426817,31.177380615674537L252.27093139648437,27.11076912513147L252.73466472625734,32.532925858827724L252.85059805870054,27.11076912513147L252.9665313911438,28.466306288645825L253.08246472358704,29.82184345216018L254.47366471290587,29.82184345216018L254.70553137779237,28.466306288645825L254.93739804267884,28.466306288645825" fill="none"></path></g></g></g></g></g></g><g transform="translate(51, 176)" clip-path="url(#clip_1)"><clipPath id="clip_1"><rect width="278" height="23"></rect></clipPath><g><g><line x1="0" y1="0" x2="0" y2="5" style="visibility: inherit;" fill="rgb(0, 0, 0)" stroke="rgb(204, 204, 204)" stroke-width="1px"></line><line x1="23.18666648864746" y1="0" x2="23.18666648864746" y2="5" style="visibility: inherit;" fill="rgb(0, 0, 0)" stroke="rgb(204, 204, 204)" stroke-width="1px"></line><line x1="46.37333297729492" y1="0" x2="46.37333297729492" y2="5" style="visibility: inherit;" fill="rgb(0, 0, 0)" stroke="rgb(204, 204, 204)" stroke-width="1px"></line><line x1="69.55999946594238" y1="0" x2="69.55999946594238" y2="5" style="visibility: inherit;" fill="rgb(0, 0, 0)" stroke="rgb(204, 204, 204)" stroke-width="1px"></line><line x1="92.74666595458984" y1="0" x2="92.74666595458984" y2="5" style="visibility: inherit;" fill="rgb(0, 0, 0)" stroke="rgb(204, 204, 204)" stroke-width="1px"></line><line x1="115.9333324432373" y1="0" x2="115.9333324432373" y2="5" style="visibility: inherit;" fill="rgb(0, 0, 0)" stroke="rgb(204, 204, 204)" stroke-width="1px"></line><line x1="139.11999893188477" y1="0" x2="139.11999893188477" y2="5" style="visibility: inherit;" fill="rgb(0, 0, 0)" stroke="rgb(204, 204, 204)" stroke-width="1px"></line><line x1="162.30666542053223" y1="0" x2="162.30666542053223" y2="5" style="visibility: inherit;" fill="rgb(0, 0, 0)" stroke="rgb(204, 204, 204)" stroke-width="1px"></line><line x1="185.4933319091797" y1="0" x2="185.4933319091797" y2="5" style="visibility: inherit;" fill="rgb(0, 0, 0)" stroke="rgb(204, 204, 204)" stroke-width="1px"></line><line x1="208.67999839782715" y1="0" x2="208.67999839782715" y2="5" style="visibility: inherit;" fill="rgb(0, 0, 0)" stroke="rgb(204, 204, 204)" stroke-width="1px"></line><line x1="231.8666648864746" y1="0" x2="231.8666648864746" y2="5" style="visibility: inherit;" fill="rgb(0, 0, 0)" stroke="rgb(204, 204, 204)" stroke-width="1px"></line><line x1="255.05333137512207" y1="0" x2="255.05333137512207" y2="5" style="visibility: inherit;" fill="rgb(0, 0, 0)" stroke="rgb(204, 204, 204)" stroke-width="1px"></line><line x1="278.23999786376953" y1="0" x2="278.23999786376953" y2="5" style="visibility: inherit;" fill="rgb(0, 0, 0)" stroke="rgb(204, 204, 204)" stroke-width="1px"></line></g><g transform="translate(0, 8)"><text style="text-anchor: middle; visibility: hidden; font-family: &quot;Helvetica Neue&quot;, sans-serif; font-size: 12px; font-weight: 200;" x="0" y="0" dx="0em" dy="0.95em" fill="rgb(50, 49, 63)" stroke="none" stroke-width="1px">-200</text><text style="text-anchor: middle; visibility: inherit; font-family: &quot;Helvetica Neue&quot;, sans-serif; font-size: 12px; font-weight: 200;" x="23.18666648864746" y="0" dx="0em" dy="0.95em" fill="rgb(50, 49, 63)" stroke="none" stroke-width="1px">0</text><text style="text-anchor: middle; visibility: hidden; font-family: &quot;Helvetica Neue&quot;, sans-serif; font-size: 12px; font-weight: 200;" x="46.37333297729492" y="0" dx="0em" dy="0.95em" fill="rgb(50, 49, 63)" stroke="none" stroke-width="1px">200</text><text style="text-anchor: middle; visibility: inherit; font-family: &quot;Helvetica Neue&quot;, sans-serif; font-size: 12px; font-weight: 200;" x="69.55999946594238" y="0" dx="0em" dy="0.95em" fill="rgb(50, 49, 63)" stroke="none" stroke-width="1px">400</text><text style="text-anchor: middle; visibility: hidden; font-family: &quot;Helvetica Neue&quot;, sans-serif; font-size: 12px; font-weight: 200;" x="92.74666595458984" y="0" dx="0em" dy="0.95em" fill="rgb(50, 49, 63)" stroke="none" stroke-width="1px">600</text><text style="text-anchor: middle; visibility: inherit; font-family: &quot;Helvetica Neue&quot;, sans-serif; font-size: 12px; font-weight: 200;" x="115.9333324432373" y="0" dx="0em" dy="0.95em" fill="rgb(50, 49, 63)" stroke="none" stroke-width="1px">800</text><text style="text-anchor: middle; visibility: hidden; font-family: &quot;Helvetica Neue&quot;, sans-serif; font-size: 12px; font-weight: 200;" x="139.11999893188477" y="0" dx="0em" dy="0.95em" fill="rgb(50, 49, 63)" stroke="none" stroke-width="1px">1k</text><text style="text-anchor: middle; visibility: inherit; font-family: &quot;Helvetica Neue&quot;, sans-serif; font-size: 12px; font-weight: 200;" x="162.30666542053223" y="0" dx="0em" dy="0.95em" fill="rgb(50, 49, 63)" stroke="none" stroke-width="1px">1.2k</text><text style="text-anchor: middle; visibility: hidden; font-family: &quot;Helvetica Neue&quot;, sans-serif; font-size: 12px; font-weight: 200;" x="185.4933319091797" y="0" dx="0em" dy="0.95em" fill="rgb(50, 49, 63)" stroke="none" stroke-width="1px">1.4k</text><text style="text-anchor: middle; visibility: inherit; font-family: &quot;Helvetica Neue&quot;, sans-serif; font-size: 12px; font-weight: 200;" x="208.67999839782715" y="0" dx="0em" dy="0.95em" fill="rgb(50, 49, 63)" stroke="none" stroke-width="1px">1.6k</text><text style="text-anchor: middle; visibility: hidden; font-family: &quot;Helvetica Neue&quot;, sans-serif; font-size: 12px; font-weight: 200;" x="231.8666648864746" y="0" dx="0em" dy="0.95em" fill="rgb(50, 49, 63)" stroke="none" stroke-width="1px">1.8k</text><text style="text-anchor: middle; visibility: inherit; font-family: &quot;Helvetica Neue&quot;, sans-serif; font-size: 12px; font-weight: 200;" x="255.05333137512207" y="0" dx="0em" dy="0.95em" fill="rgb(50, 49, 63)" stroke="none" stroke-width="1px">2k</text><text style="text-anchor: middle; visibility: hidden; font-family: &quot;Helvetica Neue&quot;, sans-serif; font-size: 12px; font-weight: 200;" x="278.23999786376953" y="0" dx="0em" dy="0.95em" fill="rgb(50, 49, 63)" stroke="none" stroke-width="1px">2.2k</text></g><line x1="0" y1="0" x2="278.23999786376953" y2="0" fill="rgb(0, 0, 0)" stroke="rgb(204, 204, 204)" stroke-width="1px"></line></g></g></g></g></svg>